<svg width="26" height="26" fill="none" xmlns="http://www.w3.org/2000/svg"><path fill-rule="evenodd" clip-rule="evenodd" d="M12.733 2.166c2.68 0 4.866 2.17 4.896 4.847l.237.001a5.43 5.43 0 015.425 5.422v5.976a5.429 5.429 0 01-5.425 5.42H7.592a5.43 5.43 0 01-5.426-5.42v-5.976a5.43 5.43 0 015.426-5.422h.22l.008-.212a4.862 4.862 0 011.442-3.215c.93-.922 2.178-1.383 3.471-1.42zm5.133 6.473h-.237v1.713a.813.813 0 01-1.625 0V8.638H9.437v1.714a.813.813 0 01-1.625 0V8.638l-.22.001a3.803 3.803 0 00-3.8 3.797v5.976a3.803 3.803 0 003.8 3.796h10.274c2.095 0 3.8-1.703 3.8-3.796v-5.976a3.803 3.803 0 00-3.8-3.797zM12.73 3.791c-.878.03-1.702.334-2.324.95a3.249 3.249 0 00-.969 2.272h6.565l-.004-.138a3.279 3.279 0 00-3.268-3.084z" fill="#999"/></svg>