<svg width="465" height="465" fill="none" xmlns="http://www.w3.org/2000/svg"><path d="M144.142 383.917A182.123 182.123 0 0134.984 210.704L217 217l-72.858 166.917z" fill="#9B2503"/><path d="M430.76 91.26a248 248 0 01-222.132 373.6L217 216.999 430.76 91.26z" fill="#F29500"/><path d="M131.105 17.724a217 217 0 01272.834 89.082L217 217 131.105 17.724z" fill="#A887A4"/><path d="M209.621 433.875a217.024 217.024 0 01-79.319-17.947L217 217l-7.379 216.875z" fill="#A1A1A1"/><path d="M.144 209.102A217.003 217.003 0 01131.814 17.42L217 217 .144 209.102z" fill="#579CA5"/><g filter="url(#filter0_dd)"><path d="M303 258.688a5.687 5.687 0 015.687-5.688h55.625a5.687 5.687 0 015.688 5.688v24.624a5.687 5.687 0 01-5.688 5.688h-18.241l-9.571 9-9.571-9h-18.242a5.687 5.687 0 01-5.687-5.688v-24.624z" fill="#fff"/></g><path d="M324.882 268.6c1.174.064 2.064.384 2.672.96.619.565.928 1.307.928 2.224 0 .64-.154 1.211-.464 1.712-.309.491-.768.88-1.376 1.168-.608.288-1.349.432-2.224.432-.81 0-1.578-.128-2.304-.384-.714-.267-1.29-.619-1.728-1.056l.56-.912c.374.384.87.699 1.488.944.619.235 1.28.352 1.984.352.918 0 1.627-.197 2.128-.592.502-.405.752-.96.752-1.664 0-.693-.25-1.237-.752-1.632-.501-.395-1.258-.592-2.272-.592h-.8v-.848l3.104-3.888h-5.728V263.8h7.2v.816l-3.168 3.984zm14.743 3.456h-2.24V275h-1.152v-2.944h-6.32v-.832l5.936-7.424h1.28l-5.728 7.232h4.864v-2.592h1.12v2.592h2.24v1.024zm2.942-2.256c-.757 0-1.37-.277-1.84-.832-.458-.565-.688-1.301-.688-2.208 0-.907.23-1.637.688-2.192.47-.565 1.083-.848 1.84-.848.747 0 1.355.277 1.824.832.47.555.704 1.291.704 2.208 0 .917-.234 1.653-.704 2.208-.469.555-1.077.832-1.824.832zm6.784-6h.944l-7.648 11.2h-.944l7.648-11.2zm-6.784 5.28c.523 0 .939-.203 1.248-.608.32-.416.48-.987.48-1.712s-.16-1.291-.48-1.696a1.475 1.475 0 00-1.248-.624c-.533 0-.954.208-1.264.624-.309.416-.464.981-.464 1.696s.155 1.28.464 1.696c.31.416.731.624 1.264.624zm6.864 6c-.746 0-1.354-.277-1.824-.832-.469-.565-.704-1.301-.704-2.208 0-.907.235-1.637.704-2.192.47-.565 1.078-.848 1.824-.848.758 0 1.366.283 1.824.848.47.555.704 1.285.704 2.192 0 .907-.234 1.643-.704 2.208-.458.555-1.066.832-1.824.832zm0-.72c.534 0 .955-.208 1.264-.624.31-.416.464-.981.464-1.696s-.154-1.28-.464-1.696c-.309-.416-.73-.624-1.264-.624-.522 0-.944.208-1.264.624-.309.405-.464.971-.464 1.696s.155 1.296.464 1.712c.32.405.742.608 1.264.608z" fill="#333"/><g filter="url(#filter1_dd)"><path d="M220 70.688A5.687 5.687 0 01225.687 65h55.625A5.687 5.687 0 01287 70.688v24.624a5.687 5.687 0 01-5.688 5.688h-18.241l-9.571 9-9.571-9h-18.242A5.687 5.687 0 01220 95.312V70.689z" fill="#fff"/></g><path d="M246.3 85.976V87h-7.856v-.816l4.656-4.56c.587-.576.982-1.072 1.184-1.488.214-.427.32-.853.32-1.28 0-.661-.229-1.173-.688-1.536-.448-.373-1.093-.56-1.936-.56-1.312 0-2.33.416-3.056 1.248l-.816-.704a4.313 4.313 0 011.664-1.184c.683-.277 1.451-.416 2.304-.416 1.142 0 2.043.272 2.704.816.672.533 1.008 1.27 1.008 2.208 0 .576-.128 1.13-.384 1.664-.256.533-.741 1.147-1.456 1.84l-3.808 3.744h6.16zm5.254-5.376c1.173.064 2.064.384 2.672.96.619.565.928 1.307.928 2.224 0 .64-.155 1.21-.464 1.712-.309.49-.768.88-1.376 1.168-.608.288-1.349.432-2.224.432a6.869 6.869 0 01-2.304-.384c-.715-.267-1.291-.619-1.728-1.056l.56-.912c.373.384.869.699 1.488.944.619.235 1.28.352 1.984.352.917 0 1.627-.197 2.128-.592.501-.405.752-.96.752-1.664 0-.693-.251-1.237-.752-1.632-.501-.395-1.259-.592-2.272-.592h-.8v-.848l3.104-3.888h-5.728V75.8h7.2v.816l-3.168 3.984zm7.435 1.2c-.757 0-1.371-.277-1.84-.832-.459-.565-.688-1.301-.688-2.208 0-.907.229-1.637.688-2.192.469-.565 1.083-.848 1.84-.848.747 0 1.355.277 1.824.832.469.555.704 1.29.704 2.208 0 .917-.235 1.653-.704 2.208-.469.555-1.077.832-1.824.832zm6.784-6h.944L259.069 87h-.944l7.648-11.2zm-6.784 5.28c.523 0 .939-.203 1.248-.608.32-.416.48-.987.48-1.712s-.16-1.29-.48-1.696a1.475 1.475 0 00-1.248-.624c-.533 0-.955.208-1.264.624-.309.416-.464.981-.464 1.696s.155 1.28.464 1.696c.309.416.731.624 1.264.624zm6.864 6c-.747 0-1.355-.277-1.824-.832-.469-.565-.704-1.301-.704-2.208 0-.907.235-1.637.704-2.192.469-.565 1.077-.848 1.824-.848.757 0 1.365.283 1.824.848.469.555.704 1.285.704 2.192 0 .907-.235 1.643-.704 2.208-.459.555-1.067.832-1.824.832zm0-.72c.533 0 .955-.208 1.264-.624.309-.416.464-.981.464-1.696s-.155-1.28-.464-1.696c-.309-.416-.731-.624-1.264-.624-.523 0-.944.208-1.264.624-.309.405-.464.97-.464 1.696 0 .725.155 1.296.464 1.712.32.405.741.608 1.264.608z" fill="#333"/><g filter="url(#filter2_dd)"><path d="M72 121.688A5.687 5.687 0 0177.688 116h55.624a5.687 5.687 0 015.688 5.688v24.624a5.687 5.687 0 01-5.688 5.688h-18.241l-9.571 9-9.571-9H77.687A5.687 5.687 0 0172 146.312v-24.624z" fill="#fff"/></g><path d="M94.975 126.8V138h-1.152v-10.176h-2.64V126.8h3.792zm6.165-.096c1.483 0 2.619.491 3.408 1.472.79.971 1.184 2.347 1.184 4.128 0 1.248-.213 2.304-.64 3.168-.426.864-1.024 1.52-1.792 1.968-.768.437-1.664.656-2.688.656-1.109 0-1.994-.203-2.656-.608l.464-.928c.534.352 1.259.528 2.176.528 1.238 0 2.208-.389 2.912-1.168.704-.789 1.056-1.931 1.056-3.424 0-.277-.016-.581-.048-.912a3.059 3.059 0 01-1.328 1.424c-.608.331-1.306.496-2.096.496-.736 0-1.392-.139-1.968-.416a3.219 3.219 0 01-1.328-1.168c-.32-.512-.48-1.104-.48-1.776 0-.683.166-1.285.496-1.808a3.229 3.229 0 011.36-1.2c.587-.288 1.243-.432 1.968-.432zm.128 5.824c.566 0 1.062-.107 1.488-.32a2.504 2.504 0 001.024-.88c.246-.373.368-.789.368-1.248 0-.427-.117-.821-.352-1.184-.224-.363-.56-.656-1.008-.88-.448-.224-.981-.336-1.6-.336-.81 0-1.472.224-1.984.672-.501.437-.752 1.024-.752 1.76s.251 1.323.752 1.76c.512.437 1.2.656 2.064.656zm8.502.272c-.757 0-1.37-.277-1.84-.832-.458-.565-.688-1.301-.688-2.208 0-.907.23-1.637.688-2.192.47-.565 1.083-.848 1.84-.848.747 0 1.355.277 1.824.832.47.555.704 1.291.704 2.208 0 .917-.234 1.653-.704 2.208-.469.555-1.077.832-1.824.832zm6.784-6h.944L109.85 138h-.944l7.648-11.2zm-6.784 5.28c.523 0 .939-.203 1.248-.608.32-.416.48-.987.48-1.712s-.16-1.291-.48-1.696a1.475 1.475 0 00-1.248-.624c-.533 0-.954.208-1.264.624-.309.416-.464.981-.464 1.696s.155 1.28.464 1.696c.31.416.731.624 1.264.624zm6.864 6c-.746 0-1.354-.277-1.824-.832-.469-.565-.704-1.301-.704-2.208 0-.907.235-1.637.704-2.192.47-.565 1.078-.848 1.824-.848.758 0 1.366.283 1.824.848.47.555.704 1.285.704 2.192 0 .907-.234 1.643-.704 2.208-.458.555-1.066.832-1.824.832zm0-.72c.534 0 .955-.208 1.264-.624.31-.416.464-.981.464-1.696s-.154-1.28-.464-1.696c-.309-.416-.73-.624-1.264-.624-.522 0-.944.208-1.264.624-.309.405-.464.971-.464 1.696s.155 1.296.464 1.712c.32.405.742.608 1.264.608z" fill="#333"/><g filter="url(#filter3_dd)"><path d="M89 257.688A5.687 5.687 0 0194.688 252h55.624a5.687 5.687 0 015.688 5.688v24.624a5.687 5.687 0 01-5.688 5.688h-18.241l-9.571 9-9.571-9H94.687A5.687 5.687 0 0189 282.312v-24.624z" fill="#fff"/></g><path d="M111.827 262.8V274h-1.152v-10.176h-2.64V262.8h3.792zm9.093 5.328c.704.235 1.243.587 1.616 1.056.384.469.576 1.035.576 1.696 0 .651-.176 1.221-.528 1.712-.352.48-.859.853-1.52 1.12-.651.256-1.419.384-2.304.384-1.344 0-2.4-.288-3.168-.864-.768-.576-1.152-1.36-1.152-2.352 0-.672.181-1.237.544-1.696.373-.469.912-.821 1.616-1.056-.576-.224-1.013-.544-1.312-.96-.299-.427-.448-.928-.448-1.504 0-.907.352-1.627 1.056-2.16.715-.533 1.669-.8 2.864-.8.789 0 1.477.123 2.064.368.597.235 1.061.576 1.392 1.024.331.448.496.971.496 1.568 0 .576-.155 1.077-.464 1.504-.309.416-.752.736-1.328.96zm-4.928-2.432c0 .619.245 1.109.736 1.472s1.168.544 2.032.544c.864 0 1.541-.181 2.032-.544.501-.363.752-.848.752-1.456 0-.629-.256-1.125-.768-1.488-.501-.363-1.173-.544-2.016-.544-.853 0-1.531.181-2.032.544-.491.363-.736.853-.736 1.472zm2.768 7.424c.992 0 1.765-.203 2.32-.608.565-.405.848-.955.848-1.648s-.283-1.237-.848-1.632c-.555-.405-1.328-.608-2.32-.608-.981 0-1.755.203-2.32.608-.555.395-.832.939-.832 1.632 0 .704.277 1.259.832 1.664.555.395 1.328.592 2.32.592zm8.159-4.32c-.758 0-1.371-.277-1.84-.832-.459-.565-.688-1.301-.688-2.208 0-.907.229-1.637.688-2.192.469-.565 1.082-.848 1.84-.848.746 0 1.354.277 1.824.832.469.555.704 1.291.704 2.208 0 .917-.235 1.653-.704 2.208-.47.555-1.078.832-1.824.832zm6.784-6h.944l-7.648 11.2h-.944l7.648-11.2zm-6.784 5.28c.522 0 .938-.203 1.248-.608.32-.416.48-.987.48-1.712s-.16-1.291-.48-1.696a1.477 1.477 0 00-1.248-.624c-.534 0-.955.208-1.264.624-.31.416-.464.981-.464 1.696s.154 1.28.464 1.696c.309.416.73.624 1.264.624zm6.864 6c-.747 0-1.355-.277-1.824-.832-.47-.565-.704-1.301-.704-2.208 0-.907.234-1.637.704-2.192.469-.565 1.077-.848 1.824-.848.757 0 1.365.283 1.824.848.469.555.704 1.285.704 2.192 0 .907-.235 1.643-.704 2.208-.459.555-1.067.832-1.824.832zm0-.72c.533 0 .954-.208 1.264-.624.309-.416.464-.981.464-1.696s-.155-1.28-.464-1.696c-.31-.416-.731-.624-1.264-.624-.523 0-.944.208-1.264.624-.31.405-.464.971-.464 1.696s.154 1.296.464 1.712c.32.405.741.608 1.264.608z" fill="#333"/><g filter="url(#filter4_dd)"><path d="M152 343.688a5.687 5.687 0 015.687-5.688h55.625a5.687 5.687 0 015.688 5.688v24.624a5.687 5.687 0 01-5.688 5.688h-18.241l-9.571 9-9.571-9h-18.242a5.687 5.687 0 01-5.687-5.688v-24.624z" fill="#fff"/></g><path d="M179.558 353.296c.736 0 1.387.139 1.952.416a3.159 3.159 0 011.344 1.184c.32.501.48 1.088.48 1.76 0 .683-.165 1.285-.496 1.808a3.316 3.316 0 01-1.376 1.216c-.576.277-1.227.416-1.952.416-1.483 0-2.619-.485-3.408-1.456-.789-.981-1.184-2.363-1.184-4.144 0-1.248.213-2.304.64-3.168.427-.864 1.024-1.515 1.792-1.952.768-.448 1.664-.672 2.688-.672 1.109 0 1.995.203 2.656.608l-.464.928c-.533-.352-1.259-.528-2.176-.528-1.237 0-2.208.395-2.912 1.184-.704.779-1.056 1.915-1.056 3.408 0 .267.016.571.048.912a2.979 2.979 0 011.328-1.408c.608-.341 1.307-.512 2.096-.512zm-.096 5.824c.811 0 1.467-.219 1.968-.656.512-.448.768-1.04.768-1.776s-.256-1.323-.768-1.76c-.501-.437-1.184-.656-2.048-.656-.565 0-1.067.107-1.504.32a2.529 2.529 0 00-1.008.88 2.225 2.225 0 00-.368 1.248c0 .427.112.821.336 1.184.235.363.576.656 1.024.88.448.224.981.336 1.6.336zm7.261-4.32c-.757 0-1.37-.277-1.84-.832-.458-.565-.688-1.301-.688-2.208 0-.907.23-1.637.688-2.192.47-.565 1.083-.848 1.84-.848.747 0 1.355.277 1.824.832.47.555.704 1.291.704 2.208 0 .917-.234 1.653-.704 2.208-.469.555-1.077.832-1.824.832zm6.784-6h.944l-7.648 11.2h-.944l7.648-11.2zm-6.784 5.28c.523 0 .939-.203 1.248-.608.32-.416.48-.987.48-1.712s-.16-1.291-.48-1.696a1.475 1.475 0 00-1.248-.624c-.533 0-.954.208-1.264.624-.309.416-.464.981-.464 1.696s.155 1.28.464 1.696c.31.416.731.624 1.264.624zm6.864 6c-.746 0-1.354-.277-1.824-.832-.469-.565-.704-1.301-.704-2.208 0-.907.235-1.637.704-2.192.47-.565 1.078-.848 1.824-.848.758 0 1.366.283 1.824.848.47.555.704 1.285.704 2.192 0 .907-.234 1.643-.704 2.208-.458.555-1.066.832-1.824.832zm0-.72c.534 0 .955-.208 1.264-.624.31-.416.464-.981.464-1.696s-.154-1.28-.464-1.696c-.309-.416-.73-.624-1.264-.624-.522 0-.944.208-1.264.624-.309.405-.464.971-.464 1.696s.155 1.296.464 1.712c.32.405.742.608 1.264.608z" fill="#333"/><defs><filter id="filter0_dd" x="268.875" y="224.562" width="135.25" height="113.25" filterUnits="userSpaceOnUse" color-interpolation-filters="sRGB"><feFlood flood-opacity="0" result="BackgroundImageFix"/><feColorMatrix in="SourceAlpha" values="0 0 0 0 0 0 0 0 0 0 0 0 0 0 0 0 0 0 127 0" result="hardAlpha"/><feOffset dy="5.688"/><feGaussianBlur stdDeviation="17.063"/><feColorMatrix values="0 0 0 0 0 0 0 0 0 0 0 0 0 0 0 0 0 0 0.08 0"/><feBlend in2="BackgroundImageFix" result="effect1_dropShadow"/><feColorMatrix in="SourceAlpha" values="0 0 0 0 0 0 0 0 0 0 0 0 0 0 0 0 0 0 127 0" result="hardAlpha"/><feOffset dy="2.844"/><feGaussianBlur stdDeviation="2.844"/><feColorMatrix values="0 0 0 0 0 0 0 0 0 0 0 0 0 0 0 0 0 0 0.08 0"/><feBlend in2="effect1_dropShadow" result="effect2_dropShadow"/><feBlend in="SourceGraphic" in2="effect2_dropShadow" result="shape"/></filter><filter id="filter1_dd" x="185.875" y="36.563" width="135.25" height="113.25" filterUnits="userSpaceOnUse" color-interpolation-filters="sRGB"><feFlood flood-opacity="0" result="BackgroundImageFix"/><feColorMatrix in="SourceAlpha" values="0 0 0 0 0 0 0 0 0 0 0 0 0 0 0 0 0 0 127 0" result="hardAlpha"/><feOffset dy="5.688"/><feGaussianBlur stdDeviation="17.063"/><feColorMatrix values="0 0 0 0 0 0 0 0 0 0 0 0 0 0 0 0 0 0 0.08 0"/><feBlend in2="BackgroundImageFix" result="effect1_dropShadow"/><feColorMatrix in="SourceAlpha" values="0 0 0 0 0 0 0 0 0 0 0 0 0 0 0 0 0 0 127 0" result="hardAlpha"/><feOffset dy="2.844"/><feGaussianBlur stdDeviation="2.844"/><feColorMatrix values="0 0 0 0 0 0 0 0 0 0 0 0 0 0 0 0 0 0 0.08 0"/><feBlend in2="effect1_dropShadow" result="effect2_dropShadow"/><feBlend in="SourceGraphic" in2="effect2_dropShadow" result="shape"/></filter><filter id="filter2_dd" x="37.875" y="87.563" width="135.25" height="113.25" filterUnits="userSpaceOnUse" color-interpolation-filters="sRGB"><feFlood flood-opacity="0" result="BackgroundImageFix"/><feColorMatrix in="SourceAlpha" values="0 0 0 0 0 0 0 0 0 0 0 0 0 0 0 0 0 0 127 0" result="hardAlpha"/><feOffset dy="5.688"/><feGaussianBlur stdDeviation="17.063"/><feColorMatrix values="0 0 0 0 0 0 0 0 0 0 0 0 0 0 0 0 0 0 0.08 0"/><feBlend in2="BackgroundImageFix" result="effect1_dropShadow"/><feColorMatrix in="SourceAlpha" values="0 0 0 0 0 0 0 0 0 0 0 0 0 0 0 0 0 0 127 0" result="hardAlpha"/><feOffset dy="2.844"/><feGaussianBlur stdDeviation="2.844"/><feColorMatrix values="0 0 0 0 0 0 0 0 0 0 0 0 0 0 0 0 0 0 0.08 0"/><feBlend in2="effect1_dropShadow" result="effect2_dropShadow"/><feBlend in="SourceGraphic" in2="effect2_dropShadow" result="shape"/></filter><filter id="filter3_dd" x="54.875" y="223.562" width="135.25" height="113.25" filterUnits="userSpaceOnUse" color-interpolation-filters="sRGB"><feFlood flood-opacity="0" result="BackgroundImageFix"/><feColorMatrix in="SourceAlpha" values="0 0 0 0 0 0 0 0 0 0 0 0 0 0 0 0 0 0 127 0" result="hardAlpha"/><feOffset dy="5.688"/><feGaussianBlur stdDeviation="17.063"/><feColorMatrix values="0 0 0 0 0 0 0 0 0 0 0 0 0 0 0 0 0 0 0.08 0"/><feBlend in2="BackgroundImageFix" result="effect1_dropShadow"/><feColorMatrix in="SourceAlpha" values="0 0 0 0 0 0 0 0 0 0 0 0 0 0 0 0 0 0 127 0" result="hardAlpha"/><feOffset dy="2.844"/><feGaussianBlur stdDeviation="2.844"/><feColorMatrix values="0 0 0 0 0 0 0 0 0 0 0 0 0 0 0 0 0 0 0.08 0"/><feBlend in2="effect1_dropShadow" result="effect2_dropShadow"/><feBlend in="SourceGraphic" in2="effect2_dropShadow" result="shape"/></filter><filter id="filter4_dd" x="117.875" y="309.562" width="135.25" height="113.25" filterUnits="userSpaceOnUse" color-interpolation-filters="sRGB"><feFlood flood-opacity="0" result="BackgroundImageFix"/><feColorMatrix in="SourceAlpha" values="0 0 0 0 0 0 0 0 0 0 0 0 0 0 0 0 0 0 127 0" result="hardAlpha"/><feOffset dy="5.688"/><feGaussianBlur stdDeviation="17.063"/><feColorMatrix values="0 0 0 0 0 0 0 0 0 0 0 0 0 0 0 0 0 0 0.08 0"/><feBlend in2="BackgroundImageFix" result="effect1_dropShadow"/><feColorMatrix in="SourceAlpha" values="0 0 0 0 0 0 0 0 0 0 0 0 0 0 0 0 0 0 127 0" result="hardAlpha"/><feOffset dy="2.844"/><feGaussianBlur stdDeviation="2.844"/><feColorMatrix values="0 0 0 0 0 0 0 0 0 0 0 0 0 0 0 0 0 0 0.08 0"/><feBlend in2="effect1_dropShadow" result="effect2_dropShadow"/><feBlend in="SourceGraphic" in2="effect2_dropShadow" result="shape"/></filter></defs></svg>