<svg width="30" height="30" fill="none" xmlns="http://www.w3.org/2000/svg"><g clip-path="url(#clip0)" fill="#484D97"><path d="M7.5 0a3.75 3.75 0 00-3.75 3.75v22.5A3.75 3.75 0 007.5 30h15a3.75 3.75 0 003.75-3.75V3.75A3.75 3.75 0 0022.5 0h-15zm0 1.875h15a1.875 1.875 0 011.875 1.875v22.5a1.875 1.875 0 01-1.875 1.875h-15a1.875 1.875 0 01-1.875-1.875V3.75A1.875 1.875 0 017.5 1.875z"/><path d="M8.63 22.663a1.519 1.519 0 01-.82-.787c-.366-.728-.244-1.455.15-2.067.37-.575.986-1.065 1.681-1.475a14.4 14.4 0 012.78-1.21 36.936 36.936 0 001.99-4.175 13.628 13.628 0 01-.806-2.428c-.161-.75-.223-1.493-.086-2.13.14-.664.514-1.26 1.219-1.543.36-.145.75-.225 1.128-.145a1.312 1.312 0 01.895.685c.165.307.225.667.238 1.008.013.35-.023.74-.088 1.152-.158.956-.506 2.126-.975 3.363a20.534 20.534 0 001.837 3.162 10.788 10.788 0 012.502.093c.682.122 1.376.366 1.8.872.225.27.361.6.375.971.013.36-.089.717-.26 1.056a1.95 1.95 0 01-.663.78 1.605 1.605 0 01-.956.259c-.62-.026-1.226-.368-1.75-.782a10.722 10.722 0 01-1.708-1.781c-1.268.143-2.52.398-3.744.76a21.117 21.117 0 01-1.914 2.832c-.544.656-1.14 1.228-1.737 1.476a1.487 1.487 0 01-1.087.054zm2.586-3.564c-.31.142-.6.292-.86.446-.615.364-1.015.718-1.213 1.026-.177.271-.18.468-.075.676a.425.425 0 00.048.083.506.506 0 00.066-.022c.257-.105.666-.441 1.19-1.073.3-.366.58-.745.844-1.136zm3.075-2.494a23.735 23.735 0 011.894-.362 22.045 22.045 0 01-.956-1.609 38.819 38.819 0 01-.938 1.97v.001zm4.587.844c.28.303.555.562.815.768.45.357.763.475.934.48a.2.2 0 00.131-.028.576.576 0 00.177-.234.818.818 0 00.11-.375.178.178 0 00-.049-.118c-.097-.116-.375-.285-.97-.392a7.27 7.27 0 00-1.148-.1v-.001zm-3.732-6.574c.158-.509.284-1.028.375-1.552a4.41 4.41 0 00.072-.872c0-.127-.02-.252-.06-.372a.97.97 0 00-.272.075c-.163.066-.296.2-.368.531-.075.36-.056.88.087 1.541.045.208.1.426.168.649h-.002z"/></g><defs><clipPath id="clip0"><path fill="#fff" d="M0 0h30v30H0z"/></clipPath></defs></svg>