<svg width="14" height="19" fill="none" xmlns="http://www.w3.org/2000/svg"><path d="M5.687 11.959c0-.813.175-1.48.527-2 .351-.538.862-1.123 1.533-1.758.463-.439.807-.805 1.03-1.097a1.64 1.64 0 00.336-.976c0-.472-.2-.846-.6-1.123-.383-.292-.886-.439-1.509-.439-.638 0-1.221.155-1.748.464-.511.309-.927.74-1.246 1.293L.44 4.37c.655-1.139 1.581-2.025 2.78-2.66C4.416 1.078 5.861.76 7.554.76c1.901 0 3.426.407 4.576 1.22 1.166.797 1.75 1.92 1.75 3.367 0 .667-.113 1.26-.336 1.781a4.915 4.915 0 01-.815 1.293c-.303.342-.703.732-1.198 1.171-.543.472-.942.878-1.197 1.22a1.802 1.802 0 00-.384 1.147H5.687zM7.819 18.4c-.783 0-1.43-.244-1.94-.732a2.476 2.476 0 01-.767-1.83c0-.732.247-1.334.743-1.805.51-.472 1.165-.708 1.964-.708.799 0 1.453.236 1.965.708.51.471.766 1.073.766 1.805 0 .716-.255 1.326-.767 1.83-.51.488-1.165.732-1.964.732z" fill="#484D97"/></svg>