<svg width="34" height="34" fill="none" xmlns="http://www.w3.org/2000/svg"><g clip-path="url(#clip0)" fill="#484D97"><path d="M8.5 0a4.25 4.25 0 00-4.25 4.25v25.5A4.25 4.25 0 008.5 34h17a4.25 4.25 0 004.25-4.25V4.25A4.25 4.25 0 0025.5 0h-17zm0 2.125h17a2.125 2.125 0 012.125 2.125v25.5a2.125 2.125 0 01-2.125 2.125h-17a2.125 2.125 0 01-2.125-2.125V4.25A2.125 2.125 0 018.5 2.125z"/><path d="M9.781 25.685a1.72 1.72 0 01-.93-.893c-.415-.824-.277-1.649.17-2.341.42-.653 1.117-1.207 1.906-1.673a16.314 16.314 0 013.15-1.37 41.856 41.856 0 002.256-4.733 15.445 15.445 0 01-.914-2.752c-.183-.85-.253-1.691-.098-2.414.16-.752.583-1.428 1.382-1.748.408-.164.85-.255 1.279-.164a1.487 1.487 0 011.013.776c.187.348.255.756.27 1.143a6.81 6.81 0 01-.1 1.304c-.178 1.084-.573 2.41-1.105 3.813a23.276 23.276 0 002.083 3.582 12.226 12.226 0 012.835.107c.773.138 1.56.414 2.04.988.255.306.41.68.425 1.1.015.409-.1.812-.294 1.197a2.21 2.21 0 01-.752.884c-.321.21-.7.312-1.084.293-.703-.03-1.39-.416-1.982-.886a12.149 12.149 0 01-1.936-2.019 24.738 24.738 0 00-4.244.863 24.035 24.035 0 01-2.17 3.209c-.616.744-1.291 1.392-1.967 1.672a1.685 1.685 0 01-1.233.062zm2.93-4.04c-.352.162-.68.332-.975.506-.697.412-1.15.814-1.374 1.162-.2.309-.204.532-.085.768a.482.482 0 00.055.093.572.572 0 00.074-.025c.291-.12.755-.5 1.35-1.216.338-.414.657-.844.956-1.288zm3.486-2.826c.71-.166 1.425-.302 2.146-.41a24.78 24.78 0 01-1.084-1.823 43.981 43.981 0 01-1.062 2.23v.003zm5.198.956c.318.345.629.638.924.872.51.403.865.537 1.058.544a.227.227 0 00.149-.032.652.652 0 00.2-.266.927.927 0 00.125-.425.202.202 0 00-.055-.134c-.11-.132-.425-.323-1.1-.444a8.25 8.25 0 00-1.301-.113v-.002zm-4.23-7.45c.18-.577.322-1.164.426-1.76a4.95 4.95 0 00.08-.988 1.3 1.3 0 00-.067-.42 1.1 1.1 0 00-.309.085c-.184.074-.335.225-.416.601-.085.408-.064.997.098 1.747.05.236.114.482.19.735h-.001z"/></g><defs><clipPath id="clip0"><path fill="#fff" d="M0 0h34v34H0z"/></clipPath></defs></svg>