<svg width="19" height="22" fill="none" xmlns="http://www.w3.org/2000/svg"><path fill-rule="evenodd" clip-rule="evenodd" d="M9.27.167c4.928 0 8.938 4.04 8.938 9.005 0 6.105-6.994 12.12-8.938 12.12-1.943 0-8.937-6.015-8.937-12.12C.333 4.206 4.343.167 9.27.167zm0 1.625c-4.032 0-7.312 3.311-7.312 7.38 0 5.178 6.092 10.222 7.312 10.49 1.22-.27 7.313-5.313 7.313-10.49 0-4.069-3.28-7.38-7.313-7.38zm.001 3.791a3.525 3.525 0 013.521 3.522c0 1.942-1.58 3.52-3.52 3.52a3.524 3.524 0 01-3.521-3.52 3.525 3.525 0 013.52-3.522zm0 1.625a1.897 1.897 0 101.896 1.897c0-1.046-.85-1.897-1.896-1.897z" fill="#999"/></svg>