<svg width="201" height="64" fill="none" xmlns="http://www.w3.org/2000/svg"><path fill-rule="evenodd" clip-rule="evenodd" d="M65 8.197L53.01 1.261c-1.736-.946-3.787 2.365-2.051 3.468l9.94 5.675v11.665c0 1.892 3.943 2.05 3.943 0V8.197H65zm-65 0l11.99-6.936c1.736-.946 3.787 2.365 1.893 3.468l-9.939 5.833v11.507c0 1.892-3.944 2.05-3.944 0V8.197zM32.5 64l11.99-6.936c1.736-.946-.157-4.414-2.05-3.468l-9.94 5.675-9.94-5.675c-1.735-.946-3.786 2.365-2.05 3.468L32.5 64zm1.735-36.099l17.986-10.246v20.65L34.235 48.552v-20.65zm-3.628 0L12.62 17.655v20.65l17.986 10.247v-20.65zM32.5 4.1l17.828 10.403L32.5 24.907 14.672 14.503 32.5 4.098zM9.15 13.084L32.658 0l23.35 13.084v27.113l-23.35 13.714L9.15 40.197V13.084z" fill="#484D97"/><g clip-path="url(#clip0)"><path fill-rule="evenodd" clip-rule="evenodd" d="M160.446 54.636V44.328h-2.763v1.302c-.442-.977-.884-1.52-1.878-1.52-1.989 0-2.21 1.954-2.21 3.69v4.34c0 1.737.994 2.822 2.099 2.822.884 0 1.658-.434 1.879-1.411l.11 1.194c0 .542.111 0 0 .434-.221.542-2.21.76-3.978.434 0 .542.111.976.332 1.302.663.868 2.431.76 3.094.76 2.431-.11 3.315-.326 3.315-3.039zm24.863-47.093v29.731h5.967V7.543h-5.967zm6.077 16.602l3.426 13.02h6.077l-3.536-13.346 3.426-10.417h-6.078l-3.315 10.743zm-23.316-4.45v11.177c0 2.822 1.326 6.837 7.293 6.837 5.968 0 7.294-4.015 7.294-6.837v-3.798h-5.968v4.34c0 .869 0 1.954-1.326 1.954s-1.326-1.085-1.326-1.953V19.262c0-.868 0-1.954 1.326-1.954s1.326 1.086 1.326 1.954v2.93h5.968v-2.496c0-2.822-1.326-6.728-7.294-6.728-5.967 0-7.293 4.015-7.293 6.728zm-8.398 5.535v6.402c0 1.193-.442 2.062-1.436 2.062-.774 0-1.326-.543-1.326-1.954v-3.038c0-.977.331-1.519.994-2.062l1.768-1.41zm5.746 11.936v-16.82c0-5.1-1.878-7.486-7.182-7.486-4.089 0-6.962 2.278-6.962 5.86v2.17h5.525v-1.954c0-.977.442-1.628 1.547-1.628s1.437.76 1.437 1.954c0 2.604-2.1 3.146-4.31 4.123-2.21.977-4.531 2.496-4.531 6.945 0 3.798.553 7.27 4.863 7.27 1.657 0 3.315-.868 4.199-2.279h.11v1.845h5.304zm-25.857-8.138v-8.139c0-1.41.221-3.038 1.547-3.038.552 0 1.215.543 1.215 1.41v12.045c0 1.194-.552 1.52-1.215 1.52-1.547 0-1.547-2.17-1.547-3.798zm-5.967-15.626V41.29h5.967v-6.51h.11c.774 1.844 2.21 2.93 4.199 2.93 2.763 0 4.42-2.605 4.42-7.162v-11.61c0-3.799-1.436-6.078-4.309-6.078-2.1 0-3.315.869-4.199 2.605h-.111v-2.17h-6.077v.108zm-11.272 18.013V19.262c0-.868 0-1.954 1.326-1.954s1.326 1.086 1.326 1.954v12.153c0 .868 0 1.953-1.326 1.953s-1.326-1.194-1.326-1.953zm-5.967-11.72v11.177c0 2.822 1.326 6.837 7.293 6.837 5.968 0 7.294-4.015 7.294-6.837V19.696c0-2.822-1.326-6.728-7.294-6.728-5.967 0-7.293 4.015-7.293 6.728zm-11.271 2.17v-2.603c0-.868 0-1.954 1.326-1.954s1.326 1.086 1.326 1.954v2.604h-2.652zm-5.967-2.17v11.177c0 2.822 1.326 6.837 7.293 6.837 5.967 0 7.293-4.015 7.293-6.837v-2.495h-5.967v2.93c0 .867 0 1.953-1.326 1.953s-1.326-1.086-1.326-1.954v-5.1h8.619v-6.51c0-2.822-1.326-6.728-7.293-6.728-5.967 0-7.293 4.015-7.293 6.728zM80 15.573v13.564c0 4.558 1.216 8.573 5.857 8.573 2.21 0 3.757-.869 4.862-2.93h.11v2.387h5.525V20.889h-8.398v5.534h2.21v3.798c0 1.52-.663 2.279-1.989 2.279-1.878 0-1.878-1.953-1.878-2.713V15.03c0-.977.331-2.713 1.989-2.713 1.436 0 1.989.868 1.989 2.387v2.93h6.077v-3.255c0-5.534-3.867-7.27-8.177-7.27C83.426 7 80 9.82 80 15.571zm121 39.064V44.328h-2.763v1.302c-.442-.977-.884-1.52-1.878-1.52-1.989 0-2.21 1.954-2.21 3.69v4.34c0 1.737.994 2.822 2.099 2.822.884 0 1.658-.434 1.879-1.411l.11 1.194c0 .542.111 0 0 .434-.221.542-2.21.76-3.978.434 0 .542.111.976.332 1.302.663.868 2.431.76 3.094.76 2.32-.11 3.315-.326 3.315-3.039zm-4.089-2.821v-4.34c0-.76.332-.869.553-.869.331 0 .663.326.663 1.411v3.038c0 .434 0 1.628-.663 1.628-.332 0-.553-.217-.553-.868zm-17.459-7.379v11.61h2.763v-7.92c0-.326 0-1.086.663-1.086s.663.651.663 1.086v7.92h2.762v-9.331c0-1.41-.663-2.496-1.989-2.496-1.105 0-1.657.543-2.099 1.52v-1.303h-2.763zm-10.94-2.93v2.17h2.763v-2.17h-2.763zm0 2.93v11.61h2.763v-11.61h-2.763zm-22.653 11.61V47.8c0-2.496-.884-3.69-3.425-3.69-1.989 0-3.315 1.086-3.315 2.822v1.085h2.652v-.868c0-.434.221-.76.663-.76.552 0 .663.326.663.977 0 1.302-.995 1.52-2.1 2.062-.994.434-2.099 1.193-2.099 3.364 0 1.844.221 3.58 2.32 3.58.774 0 1.547-.434 1.989-1.085v.868h2.652v-.108zm-2.762-5.859v3.147c0 .543-.221.977-.663.977-.332 0-.663-.217-.663-.977v-1.52c0-.433.11-.759.442-1.084l.884-.543zm-18.786-8.68v14.54h2.763v-14.54h-2.763zm2.873 8.138l1.548 6.402h2.873l-1.658-6.51 1.658-5.1h-2.873l-1.548 5.208zm-17.569-2.17V52.9c0 1.302.663 3.364 3.425 3.364 2.763 0 3.426-1.953 3.426-3.364v-1.845h-2.763v2.062c0 .434 0 .977-.663.977s-.663-.543-.663-.977v-5.968c0-.434 0-.977.663-.977s.663.543.663.977v1.41h2.763v-1.193c0-1.302-.663-3.364-3.426-3.364-2.762.109-3.425 2.062-3.425 3.472zm-7.846 8.572V47.8c0-2.496-.884-3.69-3.426-3.69-1.989 0-3.315 1.086-3.315 2.822v1.085h2.652v-.868c0-.434.221-.76.663-.76.553 0 .663.326.663.977 0 1.302-.994 1.52-2.1 2.062-.994.434-2.099 1.193-2.099 3.364 0 1.844.221 3.58 2.32 3.58.774 0 1.548-.434 1.99-1.085v.868h2.652v-.108zm-2.652-5.86v3.147c0 .543-.221.977-.663.977-.332 0-.663-.217-.663-.977v-1.52c0-.433.11-.759.442-1.084l.884-.543zm-18.896-5.75V58h2.763v-3.147c.331.868.994 1.41 1.989 1.41 1.326 0 2.1-1.301 2.1-3.471v-5.643c0-1.845-.664-2.93-2.1-2.93-.995 0-1.547.434-1.99 1.302v-1.085h-2.762zm2.873 7.595v-4.015c0-.76.11-1.52.663-1.52.221 0 .553.218.553.76v5.86c0 .651-.221.76-.553.76-.663 0-.663-1.086-.663-1.845zm73.263-.217v-4.34c0-.76.332-.869.553-.869.331 0 .663.326.663 1.411v3.038c0 .434 0 1.628-.663 1.628-.221 0-.553-.217-.553-.868z" fill="#484D97"/></g><defs><clipPath id="clip0"><path fill="#fff" transform="translate(80 7)" d="M0 0h121v51H0z"/></clipPath></defs></svg>