<svg width="30" height="30" fill="none" xmlns="http://www.w3.org/2000/svg"><path fill-rule="evenodd" clip-rule="evenodd" d="M20.418 2.5c4.236 0 7.082 2.973 7.082 7.395v10.21c0 4.422-2.846 7.395-7.084 7.395H9.581c-4.236 0-7.081-2.973-7.081-7.395V9.895C2.5 5.473 5.345 2.5 9.581 2.5h10.837zm0 1.875H9.58c-3.162 0-5.206 2.166-5.206 5.52v10.21c0 3.354 2.044 5.52 5.206 5.52h10.835c3.164 0 5.209-2.166 5.209-5.52V9.895c0-3.354-2.044-5.52-5.207-5.52zm-5.42 4.23c.518 0 .938.42.938.937v4.92l3.783 2.254a.94.94 0 01-.481 1.743.945.945 0 01-.48-.13l-4.24-2.53a.943.943 0 01-.457-.804V9.541c0-.518.42-.938.938-.938z" fill="#fff"/></svg>