<svg width="30" height="30" fill="none" xmlns="http://www.w3.org/2000/svg"><path fill-rule="evenodd" clip-rule="evenodd" d="M26.591 18.419c.516.039.903.49.864 1.006l-.238 3.136c-.196 2.588-2.38 4.614-4.973 4.614h-14.5c-2.594 0-4.778-2.026-4.974-4.614l-.238-3.136a.939.939 0 01.865-1.006c.52-.019.967.348 1.007.865l.236 3.135A3.128 3.128 0 007.744 25.3h14.5a3.127 3.127 0 003.103-2.881l.238-3.135c.04-.517.499-.885 1.006-.865zM16.606 2.5a3.706 3.706 0 013.67 3.224l2.462.001c2.62 0 4.75 2.136 4.75 4.764v4.298a.937.937 0 01-.464.81c-3.085 1.806-6.994 2.86-11.093 3v2.249a.938.938 0 01-1.875 0v-2.248c-4.096-.14-8.004-1.194-11.092-3.002a.935.935 0 01-.464-.809v-4.31c0-2.62 2.136-4.752 4.763-4.752l2.449-.001a3.706 3.706 0 013.67-3.224h3.224zm6.132 5.1H7.263a2.885 2.885 0 00-2.888 2.876v3.765c2.967 1.612 6.708 2.496 10.602 2.498l.017-.002h.014l.595-.006c3.682-.087 7.195-.96 10.01-2.49V10.49a2.884 2.884 0 00-2.875-2.89zm-6.132-3.225h-3.225c-.841 0-1.552.573-1.762 1.35h6.75a1.828 1.828 0 00-1.763-1.35z" fill="#fff"/></svg>