<svg width="22" height="22" fill="none" xmlns="http://www.w3.org/2000/svg"><path fill-rule="evenodd" clip-rule="evenodd" d="M8.7 13.66h.13l.285.002c2.429.012 8.118.233 8.118 3.986 0 3.48-4.672 3.945-8.307 3.963h-.64c-2.43-.014-8.12-.234-8.12-3.986 0-3.554 4.87-3.964 8.534-3.964zm0 1.626c-4.584 0-6.908.787-6.908 2.339 0 1.566 2.324 2.361 6.908 2.361 4.584 0 6.909-.787 6.909-2.338 0-1.568-2.325-2.362-6.909-2.362zm10.104-8.707c.449 0 .813.364.813.812V8.75h1.404a.813.813 0 010 1.626l-1.404-.001v1.361a.813.813 0 01-1.625 0v-1.361H16.59a.813.813 0 010-1.624l1.402-.001V7.39c0-.448.364-.812.812-.812zM8.7.167a5.767 5.767 0 015.761 5.76 5.767 5.767 0 01-5.76 5.762h-.035a5.71 5.71 0 01-4.058-1.696A5.708 5.708 0 012.94 5.925 5.767 5.767 0 018.7.167zm0 1.625a4.141 4.141 0 00-4.135 4.136 4.093 4.093 0 001.195 2.92 4.1 4.1 0 002.91 1.216l.03.803v-.803a4.141 4.141 0 004.136-4.136A4.141 4.141 0 008.7 1.792z" fill="#999"/></svg>