<svg width="26" height="26" viewBox="0 0 26 26" fill="none" xmlns="http://www.w3.org/2000/svg">
<path fill-rule="evenodd" clip-rule="evenodd" d="M12.7334 2.16634C15.4139 2.16634 17.5995 4.3361 17.6287 7.01304L17.8661 7.01414C20.8583 7.01414 23.2914 9.44623 23.2914 12.4362V18.4119C23.2914 21.4008 20.8583 23.8329 17.8661 23.8329H7.59178C4.60069 23.8329 2.16644 21.4008 2.16644 18.4119V12.4362C2.16644 9.44623 4.60069 7.01414 7.59178 7.01414L7.81278 7.01317L7.81965 6.80248C7.88768 5.57349 8.39384 4.44603 9.26238 3.58659C10.1919 2.66467 11.4399 2.20425 12.7334 2.16634ZM17.8661 8.63914L17.6289 8.63817L17.629 10.352C17.629 10.8005 17.265 11.1645 16.8165 11.1645C16.368 11.1645 16.004 10.8005 16.004 10.352L16.0039 8.63817H9.43669L9.4368 10.352C9.4368 10.8005 9.0728 11.1645 8.6243 11.1645C8.1758 11.1645 7.8118 10.8005 7.8118 10.352L7.81169 8.63817L7.59178 8.63914C5.49661 8.63914 3.79144 10.3421 3.79144 12.4362V18.4119C3.79144 20.5049 5.49661 22.2079 7.59178 22.2079H17.8661C19.9613 22.2079 21.6664 20.5049 21.6664 18.4119V12.4362C21.6664 10.3421 19.9613 8.63914 17.8661 8.63914ZM12.7301 3.79134C11.8516 3.82167 11.0282 4.125 10.4064 4.74034C9.79357 5.34781 9.45011 6.15308 9.43716 7.01306L16.0017 7.01317L15.9984 6.87518C15.8987 5.15829 14.4716 3.79134 12.7301 3.79134Z" fill="#999999"/>
</svg>
