<svg width="30" height="30" fill="none" xmlns="http://www.w3.org/2000/svg"><path fill-rule="evenodd" clip-rule="evenodd" d="M14.726 2.5c3.267 0 5.966 2.49 6.3 5.674l.092.001c1.813 0 4.016 1.204 4.76 4.58l.986 7.634c.354 2.464-.088 4.44-1.317 5.857-1.223 1.41-3.158 2.157-5.596 2.157H9.516c-2.68 0-4.545-.657-5.707-2.005-1.166-1.353-1.556-3.382-1.158-6.03l.97-7.532c.637-3.453 2.968-4.66 4.773-4.66a6.405 6.405 0 011.832-3.83A6.39 6.39 0 0114.7 2.5h.026zm6.392 7.55H8.394c-.55 0-2.393.223-2.922 3.078l-.965 7.5c-.314 2.103-.071 3.626.722 4.547.784.91 2.187 1.353 4.287 1.353H19.95c1.31 0 3.098-.262 4.178-1.51.858-.988 1.153-2.46.878-4.377l-.974-7.565c-.415-1.863-1.51-3.026-2.915-3.026zm-2.746 3.48c.517 0 .966.42.966.938 0 .517-.391.937-.909.937h-.057a.938.938 0 010-1.875zm-7.288 0c.518 0 .966.42.966.938 0 .517-.392.937-.91.937h-.056a.938.938 0 010-1.875zm3.638-9.155h-.018a4.5 4.5 0 00-3.154 1.3 4.498 4.498 0 00-1.264 2.5h8.85a4.47 4.47 0 00-4.414-3.8z" fill="#fff"/></svg>