<svg width="22" height="23" fill="none" xmlns="http://www.w3.org/2000/svg"><path fill-rule="evenodd" clip-rule="evenodd" d="M10.762.167a5.499 5.499 0 015.46 4.917l.08.001c1.571 0 3.481 1.043 4.126 3.97l.854 6.615c.307 2.136-.076 3.848-1.141 5.077-1.06 1.222-2.737 1.869-4.85 1.869H6.246c-2.322 0-3.94-.57-4.946-1.738-1.01-1.172-1.348-2.93-1.004-5.225l.84-6.528c.553-2.993 2.574-4.04 4.138-4.04a5.551 5.551 0 011.588-3.318 5.538 5.538 0 013.877-1.6h.022zm5.54 6.543H5.275c-.478 0-2.074.193-2.533 2.667l-.836 6.5c-.272 1.824-.062 3.143.626 3.941.68.79 1.895 1.173 3.715 1.173h9.044c1.135 0 2.685-.227 3.621-1.308.743-.857.999-2.133.76-3.794l-.843-6.556c-.36-1.615-1.309-2.623-2.527-2.623zm-2.38 3.016c.449 0 .837.364.837.813 0 .448-.339.812-.787.812h-.05a.813.813 0 010-1.625zm-6.316 0c.449 0 .838.364.838.813 0 .448-.34.812-.79.812h-.048a.813.813 0 010-1.625zm3.153-7.934h-.016A3.9 3.9 0 008.01 2.919a3.898 3.898 0 00-1.095 2.166h7.67a3.874 3.874 0 00-3.826-3.293z" fill="#484D97"/></svg>