<svg width="14" height="14" viewBox="0 0 14 14" fill="none" xmlns="http://www.w3.org/2000/svg">
<path d="M5.75167 10.4999C5.67169 10.4997 5.59261 10.483 5.51935 10.4509C5.4461 10.4188 5.38023 10.3719 5.32584 10.3133L2.49084 7.29745C2.38486 7.18451 2.32809 7.0341 2.33301 6.8793C2.33794 6.72451 2.40415 6.57801 2.51709 6.47203C2.63003 6.36606 2.78044 6.30928 2.93523 6.31421C3.09003 6.31913 3.23653 6.38534 3.3425 6.49828L5.74584 9.05912L10.6517 3.69245C10.7015 3.63045 10.7634 3.57929 10.8337 3.5421C10.9039 3.50491 10.9811 3.48248 11.0603 3.47619C11.1396 3.4699 11.2193 3.47988 11.2946 3.50552C11.3698 3.53116 11.4391 3.57191 11.498 3.62527C11.557 3.67864 11.6044 3.74349 11.6373 3.81585C11.6703 3.8882 11.6881 3.96653 11.6897 4.04603C11.6913 4.12552 11.6766 4.2045 11.6466 4.27812C11.6165 4.35174 11.5718 4.41843 11.515 4.47411L6.18334 10.3074C6.12946 10.3672 6.06382 10.4151 5.99054 10.4482C5.91726 10.4813 5.83792 10.499 5.7575 10.4999H5.75167Z" fill="white"/>
</svg>
