<svg width="34" height="34" fill="none" xmlns="http://www.w3.org/2000/svg"><path d="M20.651 3.407h0L31.276 9.25a.962.962 0 01.499.843v13.812a.963.963 0 01-.499.843l-10.625 5.844h0a.96.96 0 01-.927 0h0L15.011 28l.928-1.685 3.138 1.726.148.081V16.507l-.052-.028L9.1 10.937s0 0 0 0a.963.963 0 010-1.686l10.625-5.844h0a.963.963 0 01.927 0zm-.415 1.969l-.049-.027-.048.027-8.42 4.63-.16.088.16.087 8.42 4.63.049.027.048-.026 8.42-4.63.16-.088-.16-.088-8.42-4.63zm9.562 17.99l.052-.029V11.72l-.148.082-8.5 4.675-.052.028v11.618l.148-.082 8.5-4.675z" fill="#fff" stroke="#484D97" stroke-width=".2"/><path d="M10.525 16.9h-8.3v-1.925h8.3V16.9zm2.125 8.5h-8.3v-1.925h8.3V25.4zm2.125-4.25h-8.3v-1.925h8.3v1.925z" fill="#fff" stroke="#484D97" stroke-width=".2"/></svg>