<svg width="465" height="465" viewBox="0 0 465 465" fill="none" xmlns="http://www.w3.org/2000/svg">
<path d="M144.142 383.917C110.682 369.312 82.384 344.988 62.9193 314.101C43.4546 283.215 33.7219 247.191 34.9838 210.704L217 217L144.142 383.917Z" fill="#9B2503"/>
<path d="M430.76 91.2591C453.279 129.541 465.104 173.168 464.999 217.582C464.895 261.996 452.865 305.567 430.167 343.743C407.469 381.919 374.935 413.299 335.965 434.604C296.994 455.909 253.017 466.358 208.628 464.859L217 217L430.76 91.2591Z" fill="#F29500"/>
<path d="M131.105 17.7237C179.631 -3.19259 234.121 -5.68387 284.353 10.7172C334.585 27.1183 377.106 61.2847 403.939 106.806L217 217L131.105 17.7237Z" fill="#A887A4"/>
<path d="M209.621 433.875C182.287 432.944 155.374 426.855 130.302 415.928L217 217L209.621 433.875Z" fill="#A1A1A1"/>
<path d="M0.143794 209.102C1.64262 167.951 14.8192 128.076 38.1345 94.1337C61.4497 60.192 93.9412 33.5847 131.814 17.4196L217 217L0.143794 209.102Z" fill="#579CA5"/>
<g filter="url(#filter0_dd)">
<path d="M303 258.688C303 255.546 305.546 253 308.687 253H364.312C367.454 253 370 255.546 370 258.688V283.312C370 286.454 367.454 289 364.312 289H346.071L336.5 298L326.929 289H308.687C305.546 289 303 286.454 303 283.312V258.688Z" fill="white"/>
</g>
<path d="M324.882 268.6C326.056 268.664 326.946 268.984 327.554 269.56C328.173 270.125 328.482 270.867 328.482 271.784C328.482 272.424 328.328 272.995 328.018 273.496C327.709 273.987 327.25 274.376 326.642 274.664C326.034 274.952 325.293 275.096 324.418 275.096C323.608 275.096 322.84 274.968 322.114 274.712C321.4 274.445 320.824 274.093 320.386 273.656L320.946 272.744C321.32 273.128 321.816 273.443 322.434 273.688C323.053 273.923 323.714 274.04 324.418 274.04C325.336 274.04 326.045 273.843 326.546 273.448C327.048 273.043 327.298 272.488 327.298 271.784C327.298 271.091 327.048 270.547 326.546 270.152C326.045 269.757 325.288 269.56 324.274 269.56H323.474V268.712L326.578 264.824H320.85V263.8H328.05V264.616L324.882 268.6ZM339.625 272.056H337.385V275H336.233V272.056H329.913V271.224L335.849 263.8H337.129L331.401 271.032H336.265V268.44H337.385V271.032H339.625V272.056ZM342.567 269.8C341.81 269.8 341.197 269.523 340.727 268.968C340.269 268.403 340.039 267.667 340.039 266.76C340.039 265.853 340.269 265.123 340.727 264.568C341.197 264.003 341.81 263.72 342.567 263.72C343.314 263.72 343.922 263.997 344.391 264.552C344.861 265.107 345.095 265.843 345.095 266.76C345.095 267.677 344.861 268.413 344.391 268.968C343.922 269.523 343.314 269.8 342.567 269.8ZM349.351 263.8H350.295L342.647 275H341.703L349.351 263.8ZM342.567 269.08C343.09 269.08 343.506 268.877 343.815 268.472C344.135 268.056 344.295 267.485 344.295 266.76C344.295 266.035 344.135 265.469 343.815 265.064C343.506 264.648 343.09 264.44 342.567 264.44C342.034 264.44 341.613 264.648 341.303 265.064C340.994 265.48 340.839 266.045 340.839 266.76C340.839 267.475 340.994 268.04 341.303 268.456C341.613 268.872 342.034 269.08 342.567 269.08ZM349.431 275.08C348.685 275.08 348.077 274.803 347.607 274.248C347.138 273.683 346.903 272.947 346.903 272.04C346.903 271.133 347.138 270.403 347.607 269.848C348.077 269.283 348.685 269 349.431 269C350.189 269 350.797 269.283 351.255 269.848C351.725 270.403 351.959 271.133 351.959 272.04C351.959 272.947 351.725 273.683 351.255 274.248C350.797 274.803 350.189 275.08 349.431 275.08ZM349.431 274.36C349.965 274.36 350.386 274.152 350.695 273.736C351.005 273.32 351.159 272.755 351.159 272.04C351.159 271.325 351.005 270.76 350.695 270.344C350.386 269.928 349.965 269.72 349.431 269.72C348.909 269.72 348.487 269.928 348.167 270.344C347.858 270.749 347.703 271.315 347.703 272.04C347.703 272.765 347.858 273.336 348.167 273.752C348.487 274.157 348.909 274.36 349.431 274.36Z" fill="#333333"/>
<g filter="url(#filter1_dd)">
<path d="M220 70.6875C220 67.5464 222.546 65 225.687 65H281.312C284.454 65 287 67.5464 287 70.6875V95.3125C287 98.4536 284.454 101 281.312 101H263.071L253.5 110L243.929 101H225.687C222.546 101 220 98.4536 220 95.3125V70.6875Z" fill="white"/>
</g>
<path d="M246.3 85.976V87H238.444V86.184L243.1 81.624C243.687 81.048 244.082 80.552 244.284 80.136C244.498 79.7093 244.604 79.2827 244.604 78.856C244.604 78.1947 244.375 77.6827 243.916 77.32C243.468 76.9467 242.823 76.76 241.98 76.76C240.668 76.76 239.65 77.176 238.924 78.008L238.108 77.304C238.546 76.792 239.1 76.3973 239.772 76.12C240.455 75.8427 241.223 75.704 242.076 75.704C243.218 75.704 244.119 75.976 244.78 76.52C245.452 77.0533 245.788 77.7893 245.788 78.728C245.788 79.304 245.66 79.8587 245.404 80.392C245.148 80.9253 244.663 81.5387 243.948 82.232L240.14 85.976H246.3ZM251.554 80.6C252.727 80.664 253.618 80.984 254.226 81.56C254.845 82.1253 255.154 82.8667 255.154 83.784C255.154 84.424 254.999 84.9947 254.69 85.496C254.381 85.9867 253.922 86.376 253.314 86.664C252.706 86.952 251.965 87.096 251.09 87.096C250.279 87.096 249.511 86.968 248.786 86.712C248.071 86.4453 247.495 86.0933 247.058 85.656L247.618 84.744C247.991 85.128 248.487 85.4427 249.106 85.688C249.725 85.9227 250.386 86.04 251.09 86.04C252.007 86.04 252.717 85.8427 253.218 85.448C253.719 85.0427 253.97 84.488 253.97 83.784C253.97 83.0907 253.719 82.5467 253.218 82.152C252.717 81.7573 251.959 81.56 250.946 81.56H250.146V80.712L253.25 76.824H247.522V75.8H254.722V76.616L251.554 80.6ZM258.989 81.8C258.232 81.8 257.618 81.5227 257.149 80.968C256.69 80.4027 256.461 79.6667 256.461 78.76C256.461 77.8533 256.69 77.1227 257.149 76.568C257.618 76.0027 258.232 75.72 258.989 75.72C259.736 75.72 260.344 75.9973 260.813 76.552C261.282 77.1067 261.517 77.8427 261.517 78.76C261.517 79.6773 261.282 80.4133 260.813 80.968C260.344 81.5227 259.736 81.8 258.989 81.8ZM265.773 75.8H266.717L259.069 87H258.125L265.773 75.8ZM258.989 81.08C259.512 81.08 259.928 80.8773 260.237 80.472C260.557 80.056 260.717 79.4853 260.717 78.76C260.717 78.0347 260.557 77.4693 260.237 77.064C259.928 76.648 259.512 76.44 258.989 76.44C258.456 76.44 258.034 76.648 257.725 77.064C257.416 77.48 257.261 78.0453 257.261 78.76C257.261 79.4747 257.416 80.04 257.725 80.456C258.034 80.872 258.456 81.08 258.989 81.08ZM265.853 87.08C265.106 87.08 264.498 86.8027 264.029 86.248C263.56 85.6827 263.325 84.9467 263.325 84.04C263.325 83.1333 263.56 82.4027 264.029 81.848C264.498 81.2827 265.106 81 265.853 81C266.61 81 267.218 81.2827 267.677 81.848C268.146 82.4027 268.381 83.1333 268.381 84.04C268.381 84.9467 268.146 85.6827 267.677 86.248C267.218 86.8027 266.61 87.08 265.853 87.08ZM265.853 86.36C266.386 86.36 266.808 86.152 267.117 85.736C267.426 85.32 267.581 84.7547 267.581 84.04C267.581 83.3253 267.426 82.76 267.117 82.344C266.808 81.928 266.386 81.72 265.853 81.72C265.33 81.72 264.909 81.928 264.589 82.344C264.28 82.7493 264.125 83.3147 264.125 84.04C264.125 84.7653 264.28 85.336 264.589 85.752C264.909 86.1573 265.33 86.36 265.853 86.36Z" fill="#333333"/>
<g filter="url(#filter2_dd)">
<path d="M72 121.688C72 118.546 74.5464 116 77.6875 116H133.312C136.454 116 139 118.546 139 121.688V146.312C139 149.454 136.454 152 133.312 152H115.071L105.5 161L95.9286 152H77.6875C74.5464 152 72 149.454 72 146.312V121.688Z" fill="white"/>
</g>
<path d="M94.9751 126.8V138H93.8231V127.824H91.1831V126.8H94.9751ZM101.14 126.704C102.623 126.704 103.759 127.195 104.548 128.176C105.338 129.147 105.732 130.523 105.732 132.304C105.732 133.552 105.519 134.608 105.092 135.472C104.666 136.336 104.068 136.992 103.3 137.44C102.532 137.877 101.636 138.096 100.612 138.096C99.503 138.096 98.6176 137.893 97.9563 137.488L98.4203 136.56C98.9536 136.912 99.679 137.088 100.596 137.088C101.834 137.088 102.804 136.699 103.508 135.92C104.212 135.131 104.564 133.989 104.564 132.496C104.564 132.219 104.548 131.915 104.516 131.584C104.239 132.192 103.796 132.667 103.188 133.008C102.58 133.339 101.882 133.504 101.092 133.504C100.356 133.504 99.7003 133.365 99.1243 133.088C98.559 132.811 98.1163 132.421 97.7963 131.92C97.4763 131.408 97.3163 130.816 97.3163 130.144C97.3163 129.461 97.4816 128.859 97.8123 128.336C98.143 127.813 98.5963 127.413 99.1723 127.136C99.759 126.848 100.415 126.704 101.14 126.704ZM101.268 132.528C101.834 132.528 102.33 132.421 102.756 132.208C103.194 131.995 103.535 131.701 103.78 131.328C104.026 130.955 104.148 130.539 104.148 130.08C104.148 129.653 104.031 129.259 103.796 128.896C103.572 128.533 103.236 128.24 102.788 128.016C102.34 127.792 101.807 127.68 101.188 127.68C100.378 127.68 99.7163 127.904 99.2043 128.352C98.703 128.789 98.4523 129.376 98.4523 130.112C98.4523 130.848 98.703 131.435 99.2043 131.872C99.7163 132.309 100.404 132.528 101.268 132.528ZM109.77 132.8C109.013 132.8 108.4 132.523 107.93 131.968C107.472 131.403 107.242 130.667 107.242 129.76C107.242 128.853 107.472 128.123 107.93 127.568C108.4 127.003 109.013 126.72 109.77 126.72C110.517 126.72 111.125 126.997 111.594 127.552C112.064 128.107 112.298 128.843 112.298 129.76C112.298 130.677 112.064 131.413 111.594 131.968C111.125 132.523 110.517 132.8 109.77 132.8ZM116.554 126.8H117.498L109.85 138H108.906L116.554 126.8ZM109.77 132.08C110.293 132.08 110.709 131.877 111.018 131.472C111.338 131.056 111.498 130.485 111.498 129.76C111.498 129.035 111.338 128.469 111.018 128.064C110.709 127.648 110.293 127.44 109.77 127.44C109.237 127.44 108.816 127.648 108.506 128.064C108.197 128.48 108.042 129.045 108.042 129.76C108.042 130.475 108.197 131.04 108.506 131.456C108.816 131.872 109.237 132.08 109.77 132.08ZM116.634 138.08C115.888 138.08 115.28 137.803 114.81 137.248C114.341 136.683 114.106 135.947 114.106 135.04C114.106 134.133 114.341 133.403 114.81 132.848C115.28 132.283 115.888 132 116.634 132C117.392 132 118 132.283 118.458 132.848C118.928 133.403 119.162 134.133 119.162 135.04C119.162 135.947 118.928 136.683 118.458 137.248C118 137.803 117.392 138.08 116.634 138.08ZM116.634 137.36C117.168 137.36 117.589 137.152 117.898 136.736C118.208 136.32 118.362 135.755 118.362 135.04C118.362 134.325 118.208 133.76 117.898 133.344C117.589 132.928 117.168 132.72 116.634 132.72C116.112 132.72 115.69 132.928 115.37 133.344C115.061 133.749 114.906 134.315 114.906 135.04C114.906 135.765 115.061 136.336 115.37 136.752C115.69 137.157 116.112 137.36 116.634 137.36Z" fill="#333333"/>
<g filter="url(#filter3_dd)">
<path d="M89 257.688C89 254.546 91.5464 252 94.6875 252H150.312C153.454 252 156 254.546 156 257.688V282.312C156 285.454 153.454 288 150.312 288H132.071L122.5 297L112.929 288H94.6875C91.5464 288 89 285.454 89 282.312V257.688Z" fill="white"/>
</g>
<path d="M111.827 262.8V274H110.675V263.824H108.035V262.8H111.827ZM120.92 268.128C121.624 268.363 122.163 268.715 122.536 269.184C122.92 269.653 123.112 270.219 123.112 270.88C123.112 271.531 122.936 272.101 122.584 272.592C122.232 273.072 121.725 273.445 121.064 273.712C120.413 273.968 119.645 274.096 118.76 274.096C117.416 274.096 116.36 273.808 115.592 273.232C114.824 272.656 114.44 271.872 114.44 270.88C114.44 270.208 114.621 269.643 114.984 269.184C115.357 268.715 115.896 268.363 116.6 268.128C116.024 267.904 115.587 267.584 115.288 267.168C114.989 266.741 114.84 266.24 114.84 265.664C114.84 264.757 115.192 264.037 115.896 263.504C116.611 262.971 117.565 262.704 118.76 262.704C119.549 262.704 120.237 262.827 120.824 263.072C121.421 263.307 121.885 263.648 122.216 264.096C122.547 264.544 122.712 265.067 122.712 265.664C122.712 266.24 122.557 266.741 122.248 267.168C121.939 267.584 121.496 267.904 120.92 268.128ZM115.992 265.696C115.992 266.315 116.237 266.805 116.728 267.168C117.219 267.531 117.896 267.712 118.76 267.712C119.624 267.712 120.301 267.531 120.792 267.168C121.293 266.805 121.544 266.32 121.544 265.712C121.544 265.083 121.288 264.587 120.776 264.224C120.275 263.861 119.603 263.68 118.76 263.68C117.907 263.68 117.229 263.861 116.728 264.224C116.237 264.587 115.992 265.077 115.992 265.696ZM118.76 273.12C119.752 273.12 120.525 272.917 121.08 272.512C121.645 272.107 121.928 271.557 121.928 270.864C121.928 270.171 121.645 269.627 121.08 269.232C120.525 268.827 119.752 268.624 118.76 268.624C117.779 268.624 117.005 268.827 116.44 269.232C115.885 269.627 115.608 270.171 115.608 270.864C115.608 271.568 115.885 272.123 116.44 272.528C116.995 272.923 117.768 273.12 118.76 273.12ZM126.919 268.8C126.161 268.8 125.548 268.523 125.079 267.968C124.62 267.403 124.391 266.667 124.391 265.76C124.391 264.853 124.62 264.123 125.079 263.568C125.548 263.003 126.161 262.72 126.919 262.72C127.665 262.72 128.273 262.997 128.743 263.552C129.212 264.107 129.447 264.843 129.447 265.76C129.447 266.677 129.212 267.413 128.743 267.968C128.273 268.523 127.665 268.8 126.919 268.8ZM133.703 262.8H134.647L126.999 274H126.055L133.703 262.8ZM126.919 268.08C127.441 268.08 127.857 267.877 128.167 267.472C128.487 267.056 128.647 266.485 128.647 265.76C128.647 265.035 128.487 264.469 128.167 264.064C127.857 263.648 127.441 263.44 126.919 263.44C126.385 263.44 125.964 263.648 125.655 264.064C125.345 264.48 125.191 265.045 125.191 265.76C125.191 266.475 125.345 267.04 125.655 267.456C125.964 267.872 126.385 268.08 126.919 268.08ZM133.783 274.08C133.036 274.08 132.428 273.803 131.959 273.248C131.489 272.683 131.255 271.947 131.255 271.04C131.255 270.133 131.489 269.403 131.959 268.848C132.428 268.283 133.036 268 133.783 268C134.54 268 135.148 268.283 135.607 268.848C136.076 269.403 136.311 270.133 136.311 271.04C136.311 271.947 136.076 272.683 135.607 273.248C135.148 273.803 134.54 274.08 133.783 274.08ZM133.783 273.36C134.316 273.36 134.737 273.152 135.047 272.736C135.356 272.32 135.511 271.755 135.511 271.04C135.511 270.325 135.356 269.76 135.047 269.344C134.737 268.928 134.316 268.72 133.783 268.72C133.26 268.72 132.839 268.928 132.519 269.344C132.209 269.749 132.055 270.315 132.055 271.04C132.055 271.765 132.209 272.336 132.519 272.752C132.839 273.157 133.26 273.36 133.783 273.36Z" fill="#333333"/>
<g filter="url(#filter4_dd)">
<path d="M152 343.688C152 340.546 154.546 338 157.687 338H213.312C216.454 338 219 340.546 219 343.688V368.312C219 371.454 216.454 374 213.312 374H195.071L185.5 383L175.929 374H157.687C154.546 374 152 371.454 152 368.312V343.688Z" fill="white"/>
</g>
<path d="M179.558 353.296C180.294 353.296 180.945 353.435 181.51 353.712C182.086 353.989 182.534 354.384 182.854 354.896C183.174 355.397 183.334 355.984 183.334 356.656C183.334 357.339 183.169 357.941 182.838 358.464C182.507 358.987 182.049 359.392 181.462 359.68C180.886 359.957 180.235 360.096 179.51 360.096C178.027 360.096 176.891 359.611 176.102 358.64C175.313 357.659 174.918 356.277 174.918 354.496C174.918 353.248 175.131 352.192 175.558 351.328C175.985 350.464 176.582 349.813 177.35 349.376C178.118 348.928 179.014 348.704 180.038 348.704C181.147 348.704 182.033 348.907 182.694 349.312L182.23 350.24C181.697 349.888 180.971 349.712 180.054 349.712C178.817 349.712 177.846 350.107 177.142 350.896C176.438 351.675 176.086 352.811 176.086 354.304C176.086 354.571 176.102 354.875 176.134 355.216C176.411 354.608 176.854 354.139 177.462 353.808C178.07 353.467 178.769 353.296 179.558 353.296ZM179.462 359.12C180.273 359.12 180.929 358.901 181.43 358.464C181.942 358.016 182.198 357.424 182.198 356.688C182.198 355.952 181.942 355.365 181.43 354.928C180.929 354.491 180.246 354.272 179.382 354.272C178.817 354.272 178.315 354.379 177.878 354.592C177.451 354.805 177.115 355.099 176.87 355.472C176.625 355.845 176.502 356.261 176.502 356.72C176.502 357.147 176.614 357.541 176.838 357.904C177.073 358.267 177.414 358.56 177.862 358.784C178.31 359.008 178.843 359.12 179.462 359.12ZM186.723 354.8C185.966 354.8 185.353 354.523 184.883 353.968C184.425 353.403 184.195 352.667 184.195 351.76C184.195 350.853 184.425 350.123 184.883 349.568C185.353 349.003 185.966 348.72 186.723 348.72C187.47 348.72 188.078 348.997 188.547 349.552C189.017 350.107 189.251 350.843 189.251 351.76C189.251 352.677 189.017 353.413 188.547 353.968C188.078 354.523 187.47 354.8 186.723 354.8ZM193.507 348.8H194.451L186.803 360H185.859L193.507 348.8ZM186.723 354.08C187.246 354.08 187.662 353.877 187.971 353.472C188.291 353.056 188.451 352.485 188.451 351.76C188.451 351.035 188.291 350.469 187.971 350.064C187.662 349.648 187.246 349.44 186.723 349.44C186.19 349.44 185.769 349.648 185.459 350.064C185.15 350.48 184.995 351.045 184.995 351.76C184.995 352.475 185.15 353.04 185.459 353.456C185.769 353.872 186.19 354.08 186.723 354.08ZM193.587 360.08C192.841 360.08 192.233 359.803 191.763 359.248C191.294 358.683 191.059 357.947 191.059 357.04C191.059 356.133 191.294 355.403 191.763 354.848C192.233 354.283 192.841 354 193.587 354C194.345 354 194.953 354.283 195.411 354.848C195.881 355.403 196.115 356.133 196.115 357.04C196.115 357.947 195.881 358.683 195.411 359.248C194.953 359.803 194.345 360.08 193.587 360.08ZM193.587 359.36C194.121 359.36 194.542 359.152 194.851 358.736C195.161 358.32 195.315 357.755 195.315 357.04C195.315 356.325 195.161 355.76 194.851 355.344C194.542 354.928 194.121 354.72 193.587 354.72C193.065 354.72 192.643 354.928 192.323 355.344C192.014 355.749 191.859 356.315 191.859 357.04C191.859 357.765 192.014 358.336 192.323 358.752C192.643 359.157 193.065 359.36 193.587 359.36Z" fill="#333333"/>
<defs>
<filter id="filter0_dd" x="268.875" y="224.562" width="135.25" height="113.25" filterUnits="userSpaceOnUse" color-interpolation-filters="sRGB">
<feFlood flood-opacity="0" result="BackgroundImageFix"/>
<feColorMatrix in="SourceAlpha" type="matrix" values="0 0 0 0 0 0 0 0 0 0 0 0 0 0 0 0 0 0 127 0" result="hardAlpha"/>
<feOffset dy="5.6875"/>
<feGaussianBlur stdDeviation="17.0625"/>
<feColorMatrix type="matrix" values="0 0 0 0 0 0 0 0 0 0 0 0 0 0 0 0 0 0 0.08 0"/>
<feBlend mode="normal" in2="BackgroundImageFix" result="effect1_dropShadow"/>
<feColorMatrix in="SourceAlpha" type="matrix" values="0 0 0 0 0 0 0 0 0 0 0 0 0 0 0 0 0 0 127 0" result="hardAlpha"/>
<feOffset dy="2.84375"/>
<feGaussianBlur stdDeviation="2.84375"/>
<feColorMatrix type="matrix" values="0 0 0 0 0 0 0 0 0 0 0 0 0 0 0 0 0 0 0.08 0"/>
<feBlend mode="normal" in2="effect1_dropShadow" result="effect2_dropShadow"/>
<feBlend mode="normal" in="SourceGraphic" in2="effect2_dropShadow" result="shape"/>
</filter>
<filter id="filter1_dd" x="185.875" y="36.5625" width="135.25" height="113.25" filterUnits="userSpaceOnUse" color-interpolation-filters="sRGB">
<feFlood flood-opacity="0" result="BackgroundImageFix"/>
<feColorMatrix in="SourceAlpha" type="matrix" values="0 0 0 0 0 0 0 0 0 0 0 0 0 0 0 0 0 0 127 0" result="hardAlpha"/>
<feOffset dy="5.6875"/>
<feGaussianBlur stdDeviation="17.0625"/>
<feColorMatrix type="matrix" values="0 0 0 0 0 0 0 0 0 0 0 0 0 0 0 0 0 0 0.08 0"/>
<feBlend mode="normal" in2="BackgroundImageFix" result="effect1_dropShadow"/>
<feColorMatrix in="SourceAlpha" type="matrix" values="0 0 0 0 0 0 0 0 0 0 0 0 0 0 0 0 0 0 127 0" result="hardAlpha"/>
<feOffset dy="2.84375"/>
<feGaussianBlur stdDeviation="2.84375"/>
<feColorMatrix type="matrix" values="0 0 0 0 0 0 0 0 0 0 0 0 0 0 0 0 0 0 0.08 0"/>
<feBlend mode="normal" in2="effect1_dropShadow" result="effect2_dropShadow"/>
<feBlend mode="normal" in="SourceGraphic" in2="effect2_dropShadow" result="shape"/>
</filter>
<filter id="filter2_dd" x="37.875" y="87.5625" width="135.25" height="113.25" filterUnits="userSpaceOnUse" color-interpolation-filters="sRGB">
<feFlood flood-opacity="0" result="BackgroundImageFix"/>
<feColorMatrix in="SourceAlpha" type="matrix" values="0 0 0 0 0 0 0 0 0 0 0 0 0 0 0 0 0 0 127 0" result="hardAlpha"/>
<feOffset dy="5.6875"/>
<feGaussianBlur stdDeviation="17.0625"/>
<feColorMatrix type="matrix" values="0 0 0 0 0 0 0 0 0 0 0 0 0 0 0 0 0 0 0.08 0"/>
<feBlend mode="normal" in2="BackgroundImageFix" result="effect1_dropShadow"/>
<feColorMatrix in="SourceAlpha" type="matrix" values="0 0 0 0 0 0 0 0 0 0 0 0 0 0 0 0 0 0 127 0" result="hardAlpha"/>
<feOffset dy="2.84375"/>
<feGaussianBlur stdDeviation="2.84375"/>
<feColorMatrix type="matrix" values="0 0 0 0 0 0 0 0 0 0 0 0 0 0 0 0 0 0 0.08 0"/>
<feBlend mode="normal" in2="effect1_dropShadow" result="effect2_dropShadow"/>
<feBlend mode="normal" in="SourceGraphic" in2="effect2_dropShadow" result="shape"/>
</filter>
<filter id="filter3_dd" x="54.875" y="223.562" width="135.25" height="113.25" filterUnits="userSpaceOnUse" color-interpolation-filters="sRGB">
<feFlood flood-opacity="0" result="BackgroundImageFix"/>
<feColorMatrix in="SourceAlpha" type="matrix" values="0 0 0 0 0 0 0 0 0 0 0 0 0 0 0 0 0 0 127 0" result="hardAlpha"/>
<feOffset dy="5.6875"/>
<feGaussianBlur stdDeviation="17.0625"/>
<feColorMatrix type="matrix" values="0 0 0 0 0 0 0 0 0 0 0 0 0 0 0 0 0 0 0.08 0"/>
<feBlend mode="normal" in2="BackgroundImageFix" result="effect1_dropShadow"/>
<feColorMatrix in="SourceAlpha" type="matrix" values="0 0 0 0 0 0 0 0 0 0 0 0 0 0 0 0 0 0 127 0" result="hardAlpha"/>
<feOffset dy="2.84375"/>
<feGaussianBlur stdDeviation="2.84375"/>
<feColorMatrix type="matrix" values="0 0 0 0 0 0 0 0 0 0 0 0 0 0 0 0 0 0 0.08 0"/>
<feBlend mode="normal" in2="effect1_dropShadow" result="effect2_dropShadow"/>
<feBlend mode="normal" in="SourceGraphic" in2="effect2_dropShadow" result="shape"/>
</filter>
<filter id="filter4_dd" x="117.875" y="309.562" width="135.25" height="113.25" filterUnits="userSpaceOnUse" color-interpolation-filters="sRGB">
<feFlood flood-opacity="0" result="BackgroundImageFix"/>
<feColorMatrix in="SourceAlpha" type="matrix" values="0 0 0 0 0 0 0 0 0 0 0 0 0 0 0 0 0 0 127 0" result="hardAlpha"/>
<feOffset dy="5.6875"/>
<feGaussianBlur stdDeviation="17.0625"/>
<feColorMatrix type="matrix" values="0 0 0 0 0 0 0 0 0 0 0 0 0 0 0 0 0 0 0.08 0"/>
<feBlend mode="normal" in2="BackgroundImageFix" result="effect1_dropShadow"/>
<feColorMatrix in="SourceAlpha" type="matrix" values="0 0 0 0 0 0 0 0 0 0 0 0 0 0 0 0 0 0 127 0" result="hardAlpha"/>
<feOffset dy="2.84375"/>
<feGaussianBlur stdDeviation="2.84375"/>
<feColorMatrix type="matrix" values="0 0 0 0 0 0 0 0 0 0 0 0 0 0 0 0 0 0 0.08 0"/>
<feBlend mode="normal" in2="effect1_dropShadow" result="effect2_dropShadow"/>
<feBlend mode="normal" in="SourceGraphic" in2="effect2_dropShadow" result="shape"/>
</filter>
</defs>
</svg>
