<svg width="10" height="8" viewBox="0 0 10 8" fill="none" xmlns="http://www.w3.org/2000/svg">
<path d="M3.75172 7.49996C3.67173 7.49971 3.59265 7.483 3.5194 7.45089C3.44614 7.41878 3.38027 7.37194 3.32588 7.3133L0.490883 4.29746C0.384907 4.18453 0.328136 4.03411 0.333059 3.87932C0.337982 3.72452 0.404195 3.57802 0.517133 3.47205C0.630071 3.36607 0.780483 3.3093 0.935278 3.31422C1.09007 3.31915 1.23657 3.38536 1.34255 3.4983L3.74588 6.05913L8.65172 0.692463C8.7015 0.630468 8.76343 0.579305 8.83371 0.542117C8.90399 0.504928 8.98113 0.4825 9.06039 0.476209C9.13965 0.469918 9.21936 0.479898 9.29463 0.505535C9.36989 0.531171 9.43912 0.571924 9.49806 0.62529C9.557 0.678656 9.60441 0.743508 9.63738 0.815863C9.67035 0.888218 9.68817 0.966549 9.68976 1.04604C9.69135 1.12554 9.67667 1.20452 9.64663 1.27814C9.61658 1.35175 9.57181 1.41845 9.51505 1.47413L4.18338 7.30747C4.12951 7.36717 4.06387 7.41509 3.99059 7.44822C3.9173 7.48135 3.83796 7.49897 3.75755 7.49996H3.75172Z" fill="#484D97"/>
</svg>
