<svg width="34" height="34" viewBox="0 0 34 34" fill="none" xmlns="http://www.w3.org/2000/svg">
<g clip-path="url(#clip0)">
<path d="M8.5 0C7.37283 0 6.29183 0.447767 5.4948 1.2448C4.69777 2.04183 4.25 3.12283 4.25 4.25V29.75C4.25 30.8772 4.69777 31.9582 5.4948 32.7552C6.29183 33.5522 7.37283 34 8.5 34H25.5C26.6272 34 27.7082 33.5522 28.5052 32.7552C29.3022 31.9582 29.75 30.8772 29.75 29.75V4.25C29.75 3.12283 29.3022 2.04183 28.5052 1.2448C27.7082 0.447767 26.6272 0 25.5 0L8.5 0ZM8.5 2.125H25.5C26.0636 2.125 26.6041 2.34888 27.0026 2.7474C27.4011 3.14591 27.625 3.68641 27.625 4.25V29.75C27.625 30.3136 27.4011 30.8541 27.0026 31.2526C26.6041 31.6511 26.0636 31.875 25.5 31.875H8.5C7.93641 31.875 7.39591 31.6511 6.9974 31.2526C6.59888 30.8541 6.375 30.3136 6.375 29.75V4.25C6.375 3.68641 6.59888 3.14591 6.9974 2.7474C7.39591 2.34888 7.93641 2.125 8.5 2.125Z" fill="#484D97"/>
<path d="M9.78144 25.6849C9.36726 25.5193 9.03357 25.1993 8.85069 24.7924C8.43632 23.9679 8.57444 23.1434 9.02069 22.4507C9.44144 21.7983 10.1384 21.2437 10.9268 20.7783C11.9254 20.2119 12.981 19.7525 14.0761 19.4077C14.9265 17.8789 15.6802 16.2984 16.3328 14.6753C15.9426 13.7887 15.6367 12.8673 15.4191 11.9234C15.2363 11.0734 15.1662 10.2319 15.3213 9.50942C15.4807 8.75717 15.9036 8.08142 16.7026 7.76055C17.1106 7.59692 17.5526 7.50555 17.9818 7.59692C18.1977 7.64289 18.4007 7.73634 18.576 7.8705C18.7514 8.00465 18.8946 8.17615 18.9954 8.37255C19.1824 8.72105 19.2504 9.12905 19.2653 9.5158C19.2802 9.91317 19.2398 10.3552 19.1654 10.8205C18.9869 11.9043 18.5917 13.2303 18.0604 14.6328C18.6467 15.8866 19.3436 17.0856 20.1429 18.2155C21.0888 18.1408 22.0401 18.1765 22.9777 18.3218C23.7512 18.4599 24.5374 18.7362 25.0177 19.3099C25.2727 19.6159 25.4278 19.9899 25.4427 20.4107C25.4576 20.8187 25.3428 21.2224 25.1494 21.607C24.9819 21.9635 24.7222 22.2687 24.3972 22.491C24.0759 22.7006 23.6966 22.8033 23.3134 22.7843C22.6101 22.7545 21.9237 22.3678 21.3308 21.8982C20.6099 21.302 19.9603 20.6246 19.3949 19.8794C17.9579 20.0424 16.5379 20.3311 15.1513 20.7422C14.5156 21.8684 13.79 22.9415 12.9817 23.9509C12.3654 24.6947 11.6897 25.3428 11.0139 25.6233C10.6257 25.7989 10.1853 25.821 9.78144 25.6849ZM12.7118 21.6453C12.3591 21.8068 12.0318 21.9768 11.7364 22.151C11.0394 22.5633 10.5868 22.9649 10.3616 23.3134C10.1618 23.6215 10.1576 23.8447 10.2766 24.0805C10.2978 24.1273 10.3191 24.157 10.3318 24.174C10.3572 24.1673 10.382 24.1587 10.4062 24.1486C10.6973 24.0295 11.1606 23.6492 11.7556 22.933C12.094 22.5187 12.4131 22.089 12.7118 21.6453ZM16.1968 18.819C16.9064 18.6533 17.6224 18.5165 18.3431 18.4089C17.956 17.8169 17.5944 17.2086 17.2593 16.5857C16.9261 17.3392 16.5718 18.0833 16.1968 18.8169V18.819ZM21.3946 19.7753C21.7133 20.1195 22.0236 20.4128 22.3189 20.6465C22.8289 21.0503 23.1838 21.1842 23.3772 21.1905C23.429 21.1973 23.4815 21.1861 23.5259 21.1587C23.6143 21.0889 23.6832 20.9973 23.7257 20.893C23.8012 20.7636 23.8443 20.6178 23.8511 20.468C23.8498 20.4181 23.8302 20.3704 23.7958 20.3342C23.6853 20.2024 23.3708 20.0112 22.6951 19.89C22.2652 19.8182 21.8304 19.7805 21.3946 19.7774V19.7753ZM17.1658 12.325C17.3447 11.7482 17.4866 11.1605 17.5908 10.5655C17.6567 10.166 17.6822 9.83667 17.6716 9.57742C17.6722 9.43439 17.6492 9.29224 17.6036 9.15667C17.4973 9.16983 17.3935 9.19847 17.2954 9.24167C17.1106 9.31605 16.9597 9.46692 16.8789 9.84305C16.7939 10.251 16.8152 10.8397 16.9767 11.5898C17.0277 11.8257 17.0914 12.0722 17.1679 12.325H17.1658Z" fill="#484D97"/>
</g>
<defs>
<clipPath id="clip0">
<rect width="34" height="34" fill="white"/>
</clipPath>
</defs>
</svg>
