<svg width="13" height="11" viewBox="0 0 13 11" fill="none" xmlns="http://www.w3.org/2000/svg">
<path d="M4.44191e-07 5.79429C4.69086e-07 5.50952 0.211616 5.27418 0.486173 5.23693L0.562501 5.23179L10.4505 5.23225L6.87826 1.6746C6.65812 1.4554 6.65735 1.09925 6.87655 0.879106C7.07582 0.678977 7.38828 0.660149 7.60884 0.823065L7.67204 0.877393L12.2095 5.39539C12.2386 5.42429 12.2638 5.45556 12.2852 5.48858C12.2912 5.49852 12.2973 5.50869 12.3032 5.51906C12.3085 5.52795 12.3134 5.53719 12.318 5.54652C12.3243 5.5601 12.3305 5.57413 12.3361 5.58845C12.3407 5.59949 12.3445 5.61023 12.348 5.62105C12.3522 5.63447 12.3562 5.64877 12.3597 5.66329C12.3622 5.67343 12.3643 5.68319 12.3661 5.69298C12.3686 5.70756 12.3707 5.72264 12.3722 5.7379C12.3735 5.74953 12.3743 5.76107 12.3747 5.77261C12.3749 5.77961 12.375 5.78694 12.375 5.7943L12.3747 5.81609C12.3743 5.82713 12.3735 5.83816 12.3725 5.84916L12.375 5.7943C12.375 5.82979 12.3717 5.86452 12.3654 5.89819C12.364 5.90624 12.3622 5.91449 12.3603 5.92271C12.3563 5.93965 12.3517 5.95595 12.3464 5.97194C12.3438 5.97988 12.3407 5.98837 12.3375 5.99679C12.3309 6.01372 12.3238 6.02985 12.3159 6.04557C12.3122 6.05296 12.3082 6.06069 12.3039 6.06835C12.2968 6.08085 12.2896 6.09272 12.2819 6.10429C12.2765 6.11248 12.2706 6.12101 12.2643 6.1294L12.2594 6.13588C12.2443 6.15568 12.2279 6.17444 12.2103 6.19204L12.2096 6.19257L7.67207 10.7113C7.45195 10.9305 7.0958 10.9298 6.87658 10.7097C6.67729 10.5096 6.65979 10.197 6.82363 9.97715L6.87823 9.91417L10.449 6.35725L0.562501 6.35679C0.25184 6.35679 4.17032e-07 6.10496 4.44191e-07 5.79429Z" fill="white"/>
</svg>
