<svg width="14" height="19" viewBox="0 0 14 19" fill="none" xmlns="http://www.w3.org/2000/svg">
<path d="M5.68682 11.9588C5.68682 11.1456 5.8625 10.4787 6.21387 9.95818C6.56525 9.42142 7.07633 8.83586 7.74714 8.2015C8.21031 7.76233 8.5537 7.39636 8.7773 7.10358C9.0009 6.79453 9.1127 6.46922 9.1127 6.12765C9.1127 5.65594 8.91305 5.28184 8.51377 5.00532C8.13045 4.71254 7.62735 4.56615 7.00446 4.56615C6.3656 4.56615 5.78264 4.72067 5.25559 5.02972C4.7445 5.33876 4.32924 5.7698 4.00981 6.32283L0.440186 4.37096C1.09502 3.23238 2.02136 2.3459 3.21922 1.71155C4.41708 1.07719 5.8625 0.76001 7.55548 0.76001C9.45608 0.76001 10.9814 1.16665 12.1313 1.97993C13.2972 2.77694 13.8802 3.89926 13.8802 5.3469C13.8802 6.01379 13.7684 6.60748 13.5448 7.12798C13.3212 7.63221 13.0497 8.06325 12.7302 8.42109C12.4268 8.76267 12.0275 9.15304 11.5324 9.59221C10.9893 10.0639 10.5901 10.4705 10.3345 10.8121C10.079 11.1374 9.9512 11.5197 9.9512 11.9588H5.68682ZM7.81901 18.4C7.03641 18.4 6.38956 18.156 5.87847 17.6681C5.36739 17.1638 5.11184 16.5539 5.11184 15.8382C5.11184 15.1062 5.3594 14.5044 5.85452 14.0327C6.3656 13.561 7.02043 13.3252 7.81901 13.3252C8.61758 13.3252 9.27241 13.561 9.7835 14.0327C10.2946 14.5044 10.5501 15.1062 10.5501 15.8382C10.5501 16.5539 10.2946 17.1638 9.7835 17.6681C9.27241 18.156 8.61758 18.4 7.81901 18.4Z" fill="#484D97"/>
</svg>
