<svg width="20" height="20" viewBox="0 0 20 20" fill="none" xmlns="http://www.w3.org/2000/svg">
<path d="M3.09925 9.55748C3.04105 9.61554 2.99487 9.68451 2.96336 9.76044C2.93185 9.83637 2.91563 9.91777 2.91563 9.99998C2.91563 10.0822 2.93185 10.1636 2.96336 10.2395C2.99487 10.3155 3.04104 10.3844 3.09925 10.4425L6.84925 14.1925C6.96661 14.3098 7.12578 14.3758 7.29175 14.3758C7.45772 14.3758 7.61689 14.3098 7.73425 14.1925C7.85161 14.0751 7.91754 13.9159 7.91754 13.75C7.91754 13.584 7.85161 13.4248 7.73425 13.3075L5.0505 10.625L16.0417 10.625C16.2075 10.625 16.3665 10.5591 16.4837 10.4419C16.6009 10.3247 16.6667 10.1657 16.6667 9.99998C16.6667 9.83422 16.6009 9.67525 16.4837 9.55804C16.3665 9.44083 16.2075 9.37498 16.0417 9.37498L5.0505 9.37498L7.73425 6.69248C7.85161 6.57512 7.91754 6.41595 7.91754 6.24998C7.91754 6.08401 7.85161 5.92484 7.73425 5.80748C7.61689 5.69012 7.45772 5.62419 7.29175 5.62419C7.12578 5.62419 6.96661 5.69012 6.84925 5.80748L3.09925 9.55748Z" fill="#484D97"/>
</svg>
