<svg width="20" height="20" viewBox="0 0 20 20" fill="none" xmlns="http://www.w3.org/2000/svg">
<path d="M16.901 9.55748C16.9592 9.61554 17.0054 9.68451 17.0369 9.76044C17.0684 9.83637 17.0846 9.91777 17.0846 9.99998C17.0846 10.0822 17.0684 10.1636 17.0369 10.2395C17.0054 10.3155 16.9592 10.3844 16.901 10.4425L13.151 14.1925C13.0336 14.3098 12.8745 14.3758 12.7085 14.3758C12.5425 14.3758 12.3834 14.3098 12.266 14.1925C12.1486 14.0751 12.0827 13.9159 12.0827 13.75C12.0827 13.584 12.1486 13.4248 12.266 13.3075L14.9497 10.625L3.9585 10.625C3.79274 10.625 3.63376 10.5591 3.51655 10.4419C3.39934 10.3247 3.3335 10.1657 3.3335 9.99998C3.3335 9.83422 3.39934 9.67525 3.51655 9.55804C3.63376 9.44083 3.79274 9.37498 3.9585 9.37498L14.9497 9.37498L12.266 6.69248C12.1486 6.57512 12.0827 6.41595 12.0827 6.24998C12.0827 6.08401 12.1486 5.92484 12.266 5.80748C12.3834 5.69012 12.5425 5.62419 12.7085 5.62419C12.8745 5.62419 13.0336 5.69012 13.151 5.80748L16.901 9.55748Z" fill="#484D97"/>
</svg>
