<svg width="121" height="130" fill="none" xmlns="http://www.w3.org/2000/svg"><path fill-rule="evenodd" clip-rule="evenodd" d="M93 8.197L81.01 1.261c-1.736-.946-3.787 2.365-2.051 3.468l9.94 5.675v11.665c0 1.892 3.943 2.05 3.943 0V8.197H93zm-65 0l11.99-6.936c1.736-.946 3.787 2.365 1.893 3.468l-9.939 5.833v11.507c0 1.892-3.944 2.05-3.944 0V8.197zM60.5 64l11.99-6.936c1.736-.946-.157-4.414-2.05-3.468l-9.94 5.675-9.94-5.675c-1.735-.946-3.786 2.365-2.05 3.468L60.5 64zm1.735-36.099l17.986-10.246v20.65L62.235 48.552v-20.65zm-3.628 0L40.62 17.655v20.65l17.986 10.247v-20.65zM60.5 4.1l17.828 10.403L60.5 24.907 42.672 14.503 60.5 4.098zm-23.35 8.985L60.659 0l23.35 13.084v27.113l-23.35 13.714L37.15 40.197V13.084z" fill="#484D97"/><g clip-path="url(#clip0)"><path fill-rule="evenodd" clip-rule="evenodd" d="M80.446 126.636v-10.308h-2.763v1.302c-.442-.977-.884-1.519-1.878-1.519-1.99 0-2.21 1.953-2.21 3.689v4.34c0 1.737.994 2.822 2.1 2.822.883 0 1.657-.434 1.878-1.411l.11 1.194c0 .542.11 0 0 .434-.22.542-2.21.759-3.978.434 0 .542.11.976.332 1.302.662.868 2.43.759 3.094.759 2.43-.108 3.315-.325 3.315-3.038zm24.863-47.093v29.731h5.967V79.543h-5.967zm6.077 16.602l3.426 13.021h6.077l-3.536-13.347 3.426-10.417h-6.078l-3.315 10.743zm-23.316-4.45v11.177c0 2.822 1.326 6.837 7.294 6.837 5.967 0 7.293-4.015 7.293-6.837v-3.797h-5.968v4.34c0 .868 0 1.953-1.325 1.953-1.327 0-1.327-1.085-1.327-1.953V91.262c0-.868 0-1.954 1.326-1.954s1.326 1.086 1.326 1.954v2.93h5.968v-2.496c0-2.822-1.326-6.728-7.293-6.728-5.968 0-7.294 4.015-7.294 6.728zm-8.398 5.535v6.402c0 1.194-.442 2.062-1.436 2.062-.774 0-1.326-.543-1.326-1.954v-3.038c0-.977.331-1.519.994-2.062l1.768-1.41zm5.746 11.936v-16.82c0-5.1-1.878-7.486-7.182-7.486-4.089 0-6.962 2.278-6.962 5.86v2.17h5.525v-1.954c0-.976.442-1.628 1.547-1.628s1.437.76 1.437 1.954c0 2.604-2.1 3.147-4.31 4.123-2.21.977-4.53 2.496-4.53 6.945 0 3.798.552 7.27 4.862 7.27 1.657 0 3.315-.868 4.199-2.279h.11v1.845h5.304zm-25.857-8.138v-8.139c0-1.41.22-3.038 1.547-3.038.552 0 1.215.543 1.215 1.41v12.045c0 1.194-.552 1.52-1.215 1.52-1.547 0-1.547-2.171-1.547-3.798zm-5.967-15.626v27.887h5.967v-6.51h.11c.774 1.844 2.21 2.93 4.2 2.93 2.762 0 4.42-2.605 4.42-7.162v-11.61c0-3.799-1.437-6.077-4.31-6.077-2.1 0-3.315.868-4.2 2.604h-.11v-2.17h-6.077v.108zm-11.272 18.013V91.262c0-.868 0-1.954 1.326-1.954s1.326 1.086 1.326 1.954v12.153c0 .868 0 1.953-1.326 1.953s-1.326-1.194-1.326-1.953zm-5.967-11.72v11.177c0 2.822 1.326 6.837 7.293 6.837 5.967 0 7.293-4.015 7.293-6.837V91.696c0-2.822-1.326-6.728-7.293-6.728-5.967 0-7.293 4.015-7.293 6.728zm-11.271 2.171v-2.604c0-.868 0-1.954 1.326-1.954s1.326 1.086 1.326 1.954v2.604h-2.652zm-5.967-2.17v11.176c0 2.822 1.326 6.837 7.293 6.837 5.967 0 7.293-4.015 7.293-6.837v-2.495h-5.967v2.929c0 .868 0 1.954-1.326 1.954s-1.326-1.086-1.326-1.954v-5.1h8.62v-6.51c0-2.822-1.327-6.728-7.294-6.728s-7.293 4.015-7.293 6.728zM0 87.572v13.564c0 4.558 1.216 8.573 5.857 8.573 2.21 0 3.757-.869 4.862-2.93h.11v2.387h5.525V92.889H7.956v5.534h2.21v3.798c0 1.519-.663 2.279-1.989 2.279-1.878 0-1.878-1.953-1.878-2.713V87.03c0-.977.331-2.713 1.989-2.713 1.436 0 1.989.868 1.989 2.387v2.93h6.077v-3.255c0-5.534-3.867-7.27-8.177-7.27C3.426 79 0 81.82 0 87.572zm121 39.064v-10.308h-2.763v1.302c-.442-.977-.884-1.519-1.878-1.519-1.989 0-2.21 1.953-2.21 3.689v4.34c0 1.737.994 2.822 2.099 2.822.884 0 1.658-.434 1.879-1.411l.11 1.194c0 .542.111 0 0 .434-.221.542-2.21.759-3.978.434 0 .542.111.976.332 1.302.663.868 2.431.759 3.094.759 2.32-.108 3.315-.325 3.315-3.038zm-4.089-2.821v-4.341c0-.759.332-.868.553-.868.331 0 .663.326.663 1.411v3.038c0 .434 0 1.628-.663 1.628-.332 0-.553-.217-.553-.868zm-17.459-7.379v11.611h2.763v-7.921c0-.326 0-1.086.663-1.086s.663.651.663 1.086v7.921h2.762v-9.332c0-1.411-.663-2.496-1.989-2.496-1.105 0-1.657.543-2.099 1.519v-1.302h-2.763zm-10.94-2.93v2.171h2.763v-2.171h-2.763zm0 2.93v11.611h2.763v-11.611h-2.763zM65.86 128.047V119.8c0-2.496-.884-3.689-3.425-3.689-1.99 0-3.315 1.085-3.315 2.821v1.085h2.652v-.868c0-.434.22-.76.663-.76.552 0 .663.326.663.977 0 1.302-.995 1.519-2.1 2.062-.994.434-2.1 1.193-2.1 3.363 0 1.845.222 3.581 2.321 3.581.774 0 1.547-.434 1.99-1.085v.868h2.651v-.108zm-2.762-5.86v3.147c0 .543-.221.977-.663.977-.332 0-.663-.217-.663-.977v-1.519c0-.434.11-.76.442-1.085l.884-.543zm-18.786-8.681v14.541h2.763v-14.541h-2.763zm2.873 8.139l1.547 6.402h2.874l-1.658-6.511 1.658-5.1h-2.873l-1.547 5.209zm-17.57-2.171v5.426c0 1.302.664 3.364 3.426 3.364 2.763 0 3.426-1.953 3.426-3.364v-1.845h-2.763v2.062c0 .434 0 .977-.663.977s-.663-.543-.663-.977v-5.968c0-.434 0-.977.663-.977s.663.543.663.977v1.411h2.763v-1.194c0-1.302-.663-3.364-3.426-3.364-2.762.109-3.425 2.062-3.425 3.472zm-7.845 8.573V119.8c0-2.496-.884-3.689-3.426-3.689-1.989 0-3.315 1.085-3.315 2.821v1.085h2.652v-.868c0-.434.221-.76.663-.76.553 0 .663.326.663.977 0 1.302-.994 1.519-2.1 2.062-.994.434-2.099 1.193-2.099 3.363 0 1.845.221 3.581 2.32 3.581.774 0 1.548-.434 1.99-1.085v.868h2.652v-.108zm-2.652-5.86v3.147c0 .543-.221.977-.663.977-.332 0-.663-.217-.663-.977v-1.519c0-.434.11-.76.442-1.085l.884-.543zM.22 116.436V130h2.763v-3.147c.331.868.994 1.411 1.989 1.411 1.326 0 2.1-1.302 2.1-3.473v-5.642c0-1.845-.664-2.93-2.1-2.93-.995 0-1.547.434-1.99 1.302v-1.085H.222zm2.873 7.596v-4.015c0-.76.11-1.519.663-1.519.221 0 .553.217.553.759v5.86c0 .651-.221.76-.553.76-.663 0-.663-1.086-.663-1.845zm73.263-.217v-4.341c0-.759.332-.868.553-.868.331 0 .663.326.663 1.411v3.038c0 .434 0 1.628-.663 1.628-.221 0-.553-.217-.553-.868z" fill="#484D97"/></g><defs><clipPath id="clip0"><path fill="#fff" transform="translate(0 79)" d="M0 0h121v51H0z"/></clipPath></defs></svg>