<svg width="30" height="30" fill="none" xmlns="http://www.w3.org/2000/svg"><path fill-rule="evenodd" clip-rule="evenodd" d="M15.334 2.5c.895 0 1.765.368 2.389 1.007.622.642.966 1.524.94 2.417.002.202.069.434.189.638a1.442 1.442 0 001.978.519 3.339 3.339 0 014.55 1.22l.779 1.35c.02.036.038.07.053.107a3.341 3.341 0 01-1.263 4.431 1.427 1.427 0 00-.53.527 1.468 1.468 0 00-.15 1.103c.1.375.339.687.675.88a3.337 3.337 0 011.551 2.02 3.342 3.342 0 01-.338 2.525l-.83 1.383a3.33 3.33 0 01-4.534 1.199 1.488 1.488 0 00-.698-.194h-.007a1.45 1.45 0 00-1.003.422 1.429 1.429 0 00-.421 1.027 3.337 3.337 0 01-3.33 3.32h-1.566a3.333 3.333 0 01-3.33-3.328 1.345 1.345 0 00-.189-.665 1.448 1.448 0 00-.88-.685 1.446 1.446 0 00-1.09.146 3.382 3.382 0 01-2.554.307 3.351 3.351 0 01-2-1.588l-.781-1.346a3.322 3.322 0 011.213-4.531c.448-.26.727-.742.727-1.26a1.46 1.46 0 00-.728-1.26 3.336 3.336 0 01-1.213-4.54l.847-1.392c.901-1.567 2.939-2.12 4.528-1.207.216.129.451.194.69.196.779 0 1.43-.642 1.442-1.432a3.287 3.287 0 01.965-2.34 3.3 3.3 0 012.353-.975h1.566zm0 1.876h-1.566a1.441 1.441 0 00-1.443 1.448c-.026 1.828-1.52 3.3-3.329 3.3a3.225 3.225 0 01-1.623-.453 1.456 1.456 0 00-1.97.545l-.846 1.39c-.388.673-.15 1.562.54 1.963a3.342 3.342 0 011.662 2.883 3.34 3.34 0 01-1.665 2.882 1.444 1.444 0 00-.526 1.97l.788 1.36c.196.35.514.604.883.708.367.102.772.059 1.11-.129a3.281 3.281 0 011.654-.442c.286 0 .572.036.852.11a3.335 3.335 0 012.014 1.552 3.2 3.2 0 01.444 1.6c0 .813.652 1.464 1.455 1.464h1.566c.799 0 1.451-.648 1.455-1.446a3.285 3.285 0 01.971-2.353c.623-.622 1.493-.996 2.363-.971.57.014 1.118.167 1.602.442a1.463 1.463 0 001.988-.526l.83-1.384a1.447 1.447 0 00-.533-1.965 3.296 3.296 0 01-1.552-2.022 3.338 3.338 0 01.339-2.524c.287-.5.708-.921 1.213-1.211a1.457 1.457 0 00.521-1.973.705.705 0 01-.043-.086l-.733-1.27a1.456 1.456 0 00-1.982-.536 3.27 3.27 0 01-2.508.346 3.287 3.287 0 01-2.027-1.534 3.193 3.193 0 01-.449-1.607 1.491 1.491 0 00-.411-1.093 1.46 1.46 0 00-1.044-.438zm-.778 6.842c2.334 0 4.233 1.9 4.233 4.234a4.236 4.236 0 01-4.233 4.231 4.236 4.236 0 01-4.232-4.231 4.238 4.238 0 014.232-4.234zm0 1.875a2.361 2.361 0 00-2.357 2.359 2.36 2.36 0 002.357 2.356 2.36 2.36 0 002.358-2.356c0-1.3-1.058-2.359-2.358-2.359z" fill="#fff"/></svg>